<?xml version="1.0" encoding="UTF-8"?>
<!DOCTYPE svg PUBLIC "-//W3C//DTD SVG 1.1//EN" "http://www.w3.org/Graphics/SVG/1.1/DTD/svg11.dtd">
<svg xmlns="http://www.w3.org/2000/svg" version="1.1" width="784px" height="229px" style="shape-rendering:geometricPrecision; text-rendering:geometricPrecision; image-rendering:optimizeQuality; fill-rule:evenodd; clip-rule:evenodd" xmlns:xlink="http://www.w3.org/1999/xlink">
<g><path style="opacity:0.706" fill="#616161" d="M 106.5,34.5 C 106.5,30.8333 106.5,27.1667 106.5,23.5C 75.1667,23.5 43.8333,23.5 12.5,23.5C 12.5,27.5 12.5,31.5 12.5,35.5C 16.4578,35.2511 20.1244,35.9177 23.5,37.5C 19.5633,37.7935 15.73,37.4601 12,36.5C 11.5007,31.5111 11.3341,26.5111 11.5,21.5C 43.5,21.5 75.5,21.5 107.5,21.5C 107.818,26.0323 107.485,30.3656 106.5,34.5 Z"/></g>
<g><path style="opacity:1" fill="#191919" d="M 106.5,34.5 C 106.5,34.8333 106.5,35.1667 106.5,35.5C 101.022,35.1489 95.6887,35.8156 90.5,37.5C 89.7025,37.9569 89.3691,38.6236 89.5,39.5C 86.5,39.1667 85.1667,40.5 85.5,43.5C 84.4138,43.62 83.7472,44.2867 83.5,45.5C 83,47.5 82.5,49.5 82,51.5C 81.3333,91.1667 81.3333,130.833 82,170.5C 82.6667,173.167 83.3333,175.833 84,178.5C 84.4983,180.544 85.665,181.878 87.5,182.5C 87.7214,183.735 88.3881,184.735 89.5,185.5C 94.9542,187.734 100.621,188.734 106.5,188.5C 106.187,192.042 106.521,195.375 107.5,198.5C 107.5,199.167 107.5,199.833 107.5,200.5C 107.167,200.5 106.833,200.5 106.5,200.5C 75.1667,200.5 43.8333,200.5 12.5,200.5C 12.5,196.5 12.5,192.5 12.5,188.5C 16.0122,189.055 19.0122,188.388 21.5,186.5C 24.5719,186.817 27.5719,186.484 30.5,185.5C 31.1272,184.583 31.4606,183.583 31.5,182.5C 32.6737,181.486 33.3404,180.153 33.5,178.5C 34.7918,176.745 35.7918,174.745 36.5,172.5C 37.6666,132.171 37.8333,91.8375 37,51.5C 36.2838,49.1209 35.1172,47.1209 33.5,45.5C 31.6317,40.9616 28.2984,38.295 23.5,37.5C 20.1244,35.9177 16.4578,35.2511 12.5,35.5C 12.5,31.5 12.5,27.5 12.5,23.5C 43.8333,23.5 75.1667,23.5 106.5,23.5C 106.5,27.1667 106.5,30.8333 106.5,34.5 Z"/></g>
<g><path style="opacity:0.125" fill="#707070" d="M 106.5,35.5 C 101.011,37.0738 95.3445,38.4071 89.5,39.5C 89.3691,38.6236 89.7025,37.9569 90.5,37.5C 95.6887,35.8156 101.022,35.1489 106.5,35.5 Z"/></g>
<g><path style="opacity:0.392" fill="#6a6a6a" d="M 89.5,39.5 C 88.5,41.1667 87.1667,42.5 85.5,43.5C 85.1667,40.5 86.5,39.1667 89.5,39.5 Z"/></g>
<g><path style="opacity:0.178" fill="#8e8e8e" d="M 232.5,91.5 C 231.167,91.5 229.833,91.5 228.5,91.5C 228.082,90.7784 227.416,90.2784 226.5,90C 220.472,89.3594 214.472,89.5261 208.5,90.5C 211.865,88.9608 215.531,88.2942 219.5,88.5C 224.303,88.0503 228.637,89.0503 232.5,91.5 Z"/></g>
<g><path style="opacity:0.155" fill="#8d8d8d" d="M 489.5,89.5 C 497.915,87.3642 505.915,88.5309 513.5,93C 514.823,93.8159 515.489,94.9826 515.5,96.5C 508.091,90.0474 499.424,87.714 489.5,89.5 Z"/></g>
<g><path style="opacity:0.797" fill="#4b4b4b" d="M 228.5,91.5 C 221.173,90.4959 213.84,90.6626 206.5,92C 204.116,93.9019 201.449,95.0686 198.5,95.5C 201.247,92.7933 204.58,91.1266 208.5,90.5C 214.472,89.5261 220.472,89.3594 226.5,90C 227.416,90.2784 228.082,90.7784 228.5,91.5 Z"/></g>
<g><path style="opacity:0.561" fill="#757575" d="M 457.5,98.5 C 455.415,96.3155 454.415,93.6489 454.5,90.5C 451.5,90.5 448.5,90.5 445.5,90.5C 453.811,86.1048 457.811,88.7715 457.5,98.5 Z"/></g>
<g><path style="opacity:0.227" fill="#939393" d="M 176.5,89.5 C 171.57,90.6483 166.57,91.315 161.5,91.5C 165.52,90.4546 169.687,89.4546 174,88.5C 175.07,88.528 175.903,88.8614 176.5,89.5 Z"/></g>
<g><path style="opacity:0.796" fill="#6d6d6d" d="M 329.5,89.5 C 322.159,89.3337 314.826,89.5003 307.5,90C 301.222,91.5814 294.889,92.748 288.5,93.5C 293.484,91.194 298.817,89.694 304.5,89C 313.01,88.1768 321.344,88.3434 329.5,89.5 Z"/></g>
<g><path style="opacity:0.925" fill="#454545" d="M 582.5,89.5 C 589.841,89.3337 597.174,89.5003 604.5,90C 606.058,90.21 607.391,90.71 608.5,91.5C 594.369,90.0963 580.369,90.7629 566.5,93.5C 571.443,91.1107 576.777,89.7774 582.5,89.5 Z"/></g>
<g><path style="opacity:0.208" fill="#7f7f7f" d="M 582.5,89.5 C 596.174,87.2927 609.508,88.626 622.5,93.5C 617.883,92.5127 613.216,91.846 608.5,91.5C 607.391,90.71 606.058,90.21 604.5,90C 597.174,89.5003 589.841,89.3337 582.5,89.5 Z"/></g>
<g><path style="opacity:1" fill="#1a1a1a" d="M 489.5,89.5 C 499.424,87.714 508.091,90.0474 515.5,96.5C 516.167,96.5 516.5,96.8333 516.5,97.5C 519.096,106.517 519.096,115.517 516.5,124.5C 515.415,126.587 513.749,127.92 511.5,128.5C 505.316,128.965 499.316,128.299 493.5,126.5C 491.428,122.76 488.428,120.093 484.5,118.5C 482.419,116.656 479.919,115.323 477,114.5C 474.524,115.145 472.691,116.478 471.5,118.5C 470.5,119.167 469.5,119.833 468.5,120.5C 464.997,123.181 463.33,126.848 463.5,131.5C 463.5,131.833 463.5,132.167 463.5,132.5C 461.777,134.78 461.111,137.447 461.5,140.5C 460.71,141.609 460.21,142.942 460,144.5C 459.003,157.922 459.503,171.255 461.5,184.5C 463.5,185.167 465.5,185.833 467.5,186.5C 468.167,186.5 468.833,186.5 469.5,186.5C 471.988,188.388 474.988,189.055 478.5,188.5C 478.5,192.5 478.5,196.5 478.5,200.5C 452.833,200.5 427.167,200.5 401.5,200.5C 401.5,196.5 401.5,192.5 401.5,188.5C 404.698,189.036 407.365,188.369 409.5,186.5C 413.017,184.981 415.017,182.315 415.5,178.5C 416.833,178.5 417.5,177.833 417.5,176.5C 418.831,168.193 419.498,159.527 419.5,150.5C 419.498,141.473 418.831,132.807 417.5,124.5C 417.843,122.517 417.176,121.183 415.5,120.5C 415.5,119.167 415.5,117.833 415.5,116.5C 414.167,116.5 412.833,116.5 411.5,116.5C 410.817,114.824 409.483,114.157 407.5,114.5C 405.735,113.539 403.735,113.205 401.5,113.5C 401.5,109.5 401.5,105.5 401.5,101.5C 404.833,100.167 408.167,98.8333 411.5,97.5C 416.607,97.9556 421.274,96.9556 425.5,94.5C 426.167,94.5 426.833,94.5 427.5,94.5C 433.804,94.011 439.804,92.6777 445.5,90.5C 448.5,90.5 451.5,90.5 454.5,90.5C 454.415,93.6489 455.415,96.3155 457.5,98.5C 457.5,99.1667 457.5,99.8333 457.5,100.5C 457.5,105.167 457.5,109.833 457.5,114.5C 462.168,115.161 464.168,113.161 463.5,108.5C 465.929,107.735 467.262,106.069 467.5,103.5C 468.5,101.833 469.833,100.5 471.5,99.5C 473.749,98.9202 475.415,97.5869 476.5,95.5C 480.144,92.1802 484.478,90.1802 489.5,89.5 Z"/></g>
<g><path style="opacity:1" fill="#1a1a1a" d="M 176.5,89.5 C 177.873,94.312 178.707,99.312 179,104.5C 179.535,107.969 180.702,110.969 182.5,113.5C 186.774,107.892 191.774,102.892 197.5,98.5C 198.127,97.5832 198.461,96.5832 198.5,95.5C 201.449,95.0686 204.116,93.9019 206.5,92C 213.84,90.6626 221.173,90.4959 228.5,91.5C 229.833,91.5 231.167,91.5 232.5,91.5C 233.833,94.1667 235.833,96.1667 238.5,97.5C 242.631,102.351 244.131,108.018 243,114.5C 242.605,121.563 239.105,126.23 232.5,128.5C 227.833,128.5 223.167,128.5 218.5,128.5C 215.911,127.581 213.911,125.914 212.5,123.5C 210.915,118.757 207.582,115.924 202.5,115C 198.392,114.312 195.059,115.478 192.5,118.5C 190.102,121.571 188.102,124.905 186.5,128.5C 184.91,130.475 183.743,132.808 183,135.5C 182.503,138.146 182.336,140.813 182.5,143.5C 181.171,148.624 180.505,154.124 180.5,160C 180.667,165.5 180.833,171 181,176.5C 181.278,177.416 181.778,178.082 182.5,178.5C 182.5,179.833 183.167,180.5 184.5,180.5C 184.157,182.483 184.824,183.817 186.5,184.5C 188.153,184.66 189.486,185.326 190.5,186.5C 193.337,188.402 196.671,189.069 200.5,188.5C 200.5,192.5 200.5,196.5 200.5,200.5C 174.833,200.5 149.167,200.5 123.5,200.5C 123.5,196.5 123.5,192.5 123.5,188.5C 126.388,189.01 128.721,188.344 130.5,186.5C 131.167,186.5 131.833,186.5 132.5,186.5C 136.633,185.369 138.967,182.702 139.5,178.5C 140.832,169.859 141.498,160.859 141.5,151.5C 141.498,142.141 140.832,133.141 139.5,124.5C 139.545,121.923 138.545,119.923 136.5,118.5C 136.063,116.926 135.063,115.759 133.5,115C 130.146,114.545 126.813,114.045 123.5,113.5C 123.5,109.167 123.5,104.833 123.5,100.5C 132.222,99.6949 140.555,97.6949 148.5,94.5C 151.508,94.2991 154.508,93.9657 157.5,93.5C 159.333,93.4146 160.666,92.7479 161.5,91.5C 166.57,91.315 171.57,90.6483 176.5,89.5 Z"/></g>
<g><path style="opacity:0.271" fill="#8c8c8c" d="M 329.5,89.5 C 336.768,89.8177 343.435,91.8177 349.5,95.5C 342.736,93.4292 336.069,91.4292 329.5,89.5 Z"/></g>
<g><path style="opacity:0.22" fill="#606060" d="M 33.5,45.5 C 35.1172,47.1209 36.2838,49.1209 37,51.5C 37.8333,91.8375 37.6666,132.171 36.5,172.5C 35.7918,174.745 34.7918,176.745 33.5,178.5C 33.6744,175.126 34.1744,171.793 35,168.5C 35.6667,129.833 35.6667,91.1667 35,52.5C 34.5604,50.1341 34.0604,47.8008 33.5,45.5 Z"/></g>
<g><path style="opacity:0.286" fill="#939393" d="M 161.5,91.5 C 160.666,92.7479 159.333,93.4146 157.5,93.5C 154.508,93.9657 151.508,94.2991 148.5,94.5C 152.575,92.8816 156.908,91.8816 161.5,91.5 Z"/></g>
<g><path style="opacity:0.243" fill="#919191" d="M 445.5,90.5 C 439.804,92.6777 433.804,94.011 427.5,94.5C 433.239,92.5371 439.239,91.2038 445.5,90.5 Z"/></g>
<g><path style="opacity:0.076" fill="#939393" d="M 232.5,91.5 C 235.522,92.5222 237.522,94.5222 238.5,97.5C 235.833,96.1667 233.833,94.1667 232.5,91.5 Z"/></g>
<g><path style="opacity:0.122" fill="#808081" d="M 288.5,93.5 C 284.915,95.9592 280.915,97.9592 276.5,99.5C 279.902,96.4654 283.902,94.4654 288.5,93.5 Z"/></g>
<g><path style="opacity:0.202" fill="#787979" d="M 566.5,93.5 C 562.862,95.9858 558.862,97.9858 554.5,99.5C 557.902,96.4654 561.902,94.4654 566.5,93.5 Z"/></g>
<g><path style="opacity:0.471" fill="#8b8b8b" d="M 425.5,94.5 C 421.274,96.9556 416.607,97.9556 411.5,97.5C 415.985,96.2162 420.651,95.2162 425.5,94.5 Z"/></g>
<g><path style="opacity:0.318" fill="#706e6f" d="M 349.5,95.5 C 353.505,96.4977 356.839,98.4977 359.5,101.5C 356.849,100.51 354.183,99.5103 351.5,98.5C 350.388,97.7348 349.721,96.7348 349.5,95.5 Z"/></g>
<g><path style="opacity:0.416" fill="#7d7d7d" d="M 476.5,95.5 C 475.415,97.5869 473.749,98.9202 471.5,99.5C 472.585,97.4131 474.251,96.0798 476.5,95.5 Z"/></g>
<g><path style="opacity:0.3" fill="#909090" d="M 411.5,97.5 C 408.167,98.8333 404.833,100.167 401.5,101.5C 400.833,101.5 400.167,101.5 399.5,101.5C 399.577,100.25 400.244,99.4169 401.5,99C 404.827,98.3897 408.161,97.8897 411.5,97.5 Z"/></g>
<g><path style="opacity:0.831" fill="#676767" d="M 198.5,95.5 C 198.461,96.5832 198.127,97.5832 197.5,98.5C 191.774,102.892 186.774,107.892 182.5,113.5C 182.5,113.167 182.5,112.833 182.5,112.5C 186.452,105.547 191.786,99.8805 198.5,95.5 Z"/></g>
<g><path style="opacity:0.376" fill="#7c7c7c" d="M 276.5,99.5 C 275.267,101.796 273.267,103.13 270.5,103.5C 272.147,101.674 274.147,100.34 276.5,99.5 Z"/></g>
<g><path style="opacity:0.259" fill="#706f70" d="M 634.5,99.5 C 636.853,100.34 638.853,101.674 640.5,103.5C 637.733,103.13 635.733,101.796 634.5,99.5 Z"/></g>
<g><path style="opacity:1" fill="#1a1a1a" d="M 329.5,89.5 C 336.069,91.4292 342.736,93.4292 349.5,95.5C 349.721,96.7348 350.388,97.7348 351.5,98.5C 354.183,99.5103 356.849,100.51 359.5,101.5C 365.448,104.448 370.115,108.781 373.5,114.5C 373.948,117.172 375.281,119.172 377.5,120.5C 377.874,124.629 378.874,128.629 380.5,132.5C 381.498,141.141 381.831,149.808 381.5,158.5C 379.397,166.04 376.73,173.373 373.5,180.5C 368.833,183.833 364.833,187.833 361.5,192.5C 358.446,192.354 356.446,193.687 355.5,196.5C 353.517,196.157 352.183,196.824 351.5,198.5C 349.517,198.157 348.183,198.824 347.5,200.5C 340.91,201.81 334.243,203.144 327.5,204.5C 317.5,204.5 307.5,204.5 297.5,204.5C 297.167,204.5 296.833,204.5 296.5,204.5C 295.878,202.665 294.544,201.498 292.5,201C 288.832,200.052 285.165,199.219 281.5,198.5C 281.167,198.5 280.833,198.5 280.5,198.5C 279.554,195.687 277.554,194.354 274.5,194.5C 272.69,192.058 270.69,189.724 268.5,187.5C 267.311,186.571 265.978,186.238 264.5,186.5C 264.762,185.022 264.429,183.689 263.5,182.5C 260.466,179.021 257.466,175.688 254.5,172.5C 254.975,169.918 254.308,167.918 252.5,166.5C 252.5,165.5 252.5,164.5 252.5,163.5C 252.923,161.219 252.256,159.552 250.5,158.5C 249.508,146.14 250.841,134.14 254.5,122.5C 256.982,121.337 258.316,119.337 258.5,116.5C 258.427,114.973 259.094,113.973 260.5,113.5C 264.5,110.833 267.833,107.5 270.5,103.5C 273.267,103.13 275.267,101.796 276.5,99.5C 280.915,97.9592 284.915,95.9592 288.5,93.5C 294.889,92.748 301.222,91.5814 307.5,90C 314.826,89.5003 322.159,89.3337 329.5,89.5 Z"/></g>
<g><path style="opacity:0.487" fill="#737373" d="M 148.5,94.5 C 140.555,97.6949 132.222,99.6949 123.5,100.5C 123.5,104.833 123.5,109.167 123.5,113.5C 126.813,114.045 130.146,114.545 133.5,115C 135.063,115.759 136.063,116.926 136.5,118.5C 131.643,116.518 126.643,114.851 121.5,113.5C 120.151,109.128 120.318,104.794 122,100.5C 130.567,97.4193 139.401,95.4193 148.5,94.5 Z"/></g>
<g><path style="opacity:0.655" fill="#989898" d="M 176.5,89.5 C 177.793,90.842 178.626,92.5087 179,94.5C 180.259,100.626 181.426,106.626 182.5,112.5C 182.5,112.833 182.5,113.167 182.5,113.5C 180.702,110.969 179.535,107.969 179,104.5C 178.707,99.312 177.873,94.312 176.5,89.5 Z"/></g>
<g><path style="opacity:0.737" fill="#606062" d="M 554.5,99.5 C 552.937,102.95 550.27,104.95 546.5,105.5C 548.8,103.016 551.467,101.016 554.5,99.5 Z"/></g>
<g><path style="opacity:0.537" fill="#7f7f7f" d="M 270.5,103.5 C 267.833,107.5 264.5,110.833 260.5,113.5C 262.812,109.188 266.145,105.855 270.5,103.5 Z"/></g>
<g><path style="opacity:0.757" fill="#838383" d="M 467.5,103.5 C 467.262,106.069 465.929,107.735 463.5,108.5C 464.08,106.251 465.413,104.585 467.5,103.5 Z"/></g>
<g><path style="opacity:0.639" fill="#747374" d="M 546.5,105.5 C 545.167,108.167 543.167,110.167 540.5,111.5C 541.5,108.5 543.5,106.5 546.5,105.5 Z"/></g>
<g><path style="opacity:0.798" fill="#3f3f3f" d="M 399.5,101.5 C 400.167,101.5 400.833,101.5 401.5,101.5C 401.5,105.5 401.5,109.5 401.5,113.5C 403.735,113.205 405.735,113.539 407.5,114.5C 405.167,114.5 402.833,114.5 400.5,114.5C 399.09,110.229 398.757,105.895 399.5,101.5 Z"/></g>
<g><path style="opacity:1" fill="#997aa6" d="M 311.5,104.5 C 310.449,105.222 309.782,106.222 309.5,107.5C 307.81,107.856 306.81,108.856 306.5,110.5C 305.5,110.5 304.5,110.5 303.5,110.5C 303.733,108.938 304.4,107.605 305.5,106.5C 307.282,105.28 309.282,104.614 311.5,104.5 Z"/></g>
<g><path style="opacity:0.976" fill="#5e5e5e" d="M 640.5,103.5 C 644.855,105.855 648.188,109.188 650.5,113.5C 648.457,111.462 646.124,109.795 643.5,108.5C 642.446,106.799 641.446,105.132 640.5,103.5 Z"/></g>
<g><path style="opacity:1" fill="#cc9cd5" d="M 329.5,109.5 C 330.338,109.842 330.672,110.508 330.5,111.5C 329.833,111.5 329.167,111.5 328.5,111.5C 327.167,111.5 325.833,111.5 324.5,111.5C 321.145,111.091 318.145,111.758 315.5,113.5C 315.054,109.106 317.054,107.44 321.5,108.5C 323.824,108.729 325.991,109.396 328,110.5C 328.765,110.43 329.265,110.097 329.5,109.5 Z"/></g>
<g><path style="opacity:0.635" fill="#616161" d="M 516.5,97.5 C 523.036,106.585 523.036,115.585 516.5,124.5C 519.096,115.517 519.096,106.517 516.5,97.5 Z"/></g>
<g><path style="opacity:1" fill="#eee5f0" d="M 329.5,109.5 C 329.265,110.097 328.765,110.43 328,110.5C 325.991,109.396 323.824,108.729 321.5,108.5C 317.054,107.44 315.054,109.106 315.5,113.5C 315.5,113.833 315.5,114.167 315.5,114.5C 314.5,114.5 313.5,114.5 312.5,114.5C 311.957,111.962 310.957,109.628 309.5,107.5C 309.782,106.222 310.449,105.222 311.5,104.5C 318.546,102.517 324.546,104.183 329.5,109.5 Z"/></g>
<g><path style="opacity:1" fill="#41134c" d="M 331.5,111.5 C 332.833,111.5 334.167,111.5 335.5,111.5C 335.653,114.801 336.653,117.801 338.5,120.5C 338.547,122.038 337.88,123.038 336.5,123.5C 336.5,122.833 336.167,122.5 335.5,122.5C 335.784,120.585 335.451,118.919 334.5,117.5C 334.5,115.833 334.5,114.167 334.5,112.5C 333.209,112.737 332.209,112.404 331.5,111.5 Z"/></g>
<g><path style="opacity:1" fill="#251233" d="M 305.5,106.5 C 304.4,107.605 303.733,108.938 303.5,110.5C 298.682,112.08 296.348,115.414 296.5,120.5C 296.5,122.167 296.5,123.833 296.5,125.5C 295.353,121.354 295.186,117.02 296,112.5C 298.099,108.864 301.266,106.864 305.5,106.5 Z"/></g>
<g><path style="opacity:1" fill="#f4ccfa" d="M 309.5,107.5 C 310.957,109.628 311.957,111.962 312.5,114.5C 313.5,114.5 314.5,114.5 315.5,114.5C 315.631,115.376 315.298,116.043 314.5,116.5C 312.677,115.253 310.677,114.586 308.5,114.5C 308.473,112.801 307.806,111.467 306.5,110.5C 306.81,108.856 307.81,107.856 309.5,107.5 Z"/></g>
<g><path style="opacity:0.549" fill="#7b7b7b" d="M 457.5,100.5 C 458.832,104.264 459.665,108.264 460,112.5C 460.949,110.907 462.115,109.574 463.5,108.5C 464.168,113.161 462.168,115.161 457.5,114.5C 457.5,109.833 457.5,105.167 457.5,100.5 Z"/></g>
<g><path style="opacity:0.814" fill="#606060" d="M 212.5,123.5 C 207.042,116.901 200.375,115.235 192.5,118.5C 195.059,115.478 198.392,114.312 202.5,115C 207.582,115.924 210.915,118.757 212.5,123.5 Z"/></g>
<g><path style="opacity:0.161" fill="#9a9a9a" d="M 400.5,114.5 C 402.833,114.5 405.167,114.5 407.5,114.5C 409.483,114.157 410.817,114.824 411.5,116.5C 407.688,115.974 404.021,115.307 400.5,114.5 Z"/></g>
<g><path style="opacity:1" fill="#c576d4" d="M 328.5,111.5 C 329.167,111.5 329.833,111.5 330.5,111.5C 330.833,111.5 331.167,111.5 331.5,111.5C 332.209,112.404 333.209,112.737 334.5,112.5C 334.5,114.167 334.5,115.833 334.5,117.5C 332.708,117.366 331.042,117.699 329.5,118.5C 327.583,116.354 327.25,114.021 328.5,111.5 Z"/></g>
<g><path style="opacity:0.335" fill="#727272" d="M 484.5,118.5 C 480.125,115.981 475.792,115.981 471.5,118.5C 472.691,116.478 474.524,115.145 477,114.5C 479.919,115.323 482.419,116.656 484.5,118.5 Z"/></g>
<g><path style="opacity:1" fill="#f5a3fb" d="M 324.5,111.5 C 325.833,111.5 327.167,111.5 328.5,111.5C 327.25,114.021 327.583,116.354 329.5,118.5C 328.5,118.833 327.833,119.5 327.5,120.5C 326.5,120.5 325.5,120.5 324.5,120.5C 324.5,117.5 324.5,114.5 324.5,111.5 Z"/></g>
<g><path style="opacity:0.851" fill="#7e7e7e" d="M 411.5,116.5 C 412.833,116.5 414.167,116.5 415.5,116.5C 415.5,117.833 415.5,119.167 415.5,120.5C 414.167,119.167 412.833,117.833 411.5,116.5 Z"/></g>
<g><path style="opacity:0.978" fill="#585858" d="M 540.5,111.5 C 539.055,114.324 537.889,117.324 537,120.5C 535.302,123.683 533.135,126.35 530.5,128.5C 532.033,121.766 535.366,116.1 540.5,111.5 Z"/></g>
<g><path style="opacity:0.999" fill="#1a1a19" d="M 608.5,91.5 C 613.216,91.846 617.883,92.5127 622.5,93.5C 626.818,94.9922 630.818,96.9922 634.5,99.5C 635.733,101.796 637.733,103.13 640.5,103.5C 641.446,105.132 642.446,106.799 643.5,108.5C 646.124,109.795 648.457,111.462 650.5,113.5C 652.079,116.1 651.745,118.433 649.5,120.5C 650.391,121.59 651.391,121.59 652.5,120.5C 656.049,125.57 658.383,130.903 659.5,136.5C 659.94,147.295 659.274,157.962 657.5,168.5C 656.674,171.485 655.341,174.151 653.5,176.5C 651.204,177.733 649.87,179.733 649.5,182.5C 648.325,182.281 647.325,182.614 646.5,183.5C 644.302,185.504 642.635,187.837 641.5,190.5C 636.588,195.122 630.921,198.456 624.5,200.5C 619.141,201.334 613.807,202.5 608.5,204C 599.167,204.667 589.833,204.667 580.5,204C 577.312,202.684 573.978,202.184 570.5,202.5C 568.898,200.926 566.898,200.259 564.5,200.5C 554.885,197.685 546.885,192.352 540.5,184.5C 540.13,181.733 538.796,179.733 536.5,178.5C 536.646,175.446 535.313,173.446 532.5,172.5C 532.5,171.833 532.5,171.167 532.5,170.5C 532.843,168.517 532.176,167.183 530.5,166.5C 530.5,166.167 530.5,165.833 530.5,165.5C 529.237,153.17 529.237,140.836 530.5,128.5C 533.135,126.35 535.302,123.683 537,120.5C 537.889,117.324 539.055,114.324 540.5,111.5C 543.167,110.167 545.167,108.167 546.5,105.5C 550.27,104.95 552.937,102.95 554.5,99.5C 558.862,97.9858 562.862,95.9858 566.5,93.5C 580.369,90.7629 594.369,90.0963 608.5,91.5 Z"/></g>
<g><path style="opacity:1" fill="#e6e3f5" d="M 608.5,111.5 C 608.285,113.179 608.952,114.179 610.5,114.5C 610.365,117.417 611.032,120.084 612.5,122.5C 606.325,122.553 600.325,123.053 594.5,124C 592.929,121.591 590.929,119.758 588.5,118.5C 588.44,114.515 590.44,112.848 594.5,113.5C 591.569,116.843 592.236,119.176 596.5,120.5C 596.791,121.649 597.624,122.316 599,122.5C 599.833,122.333 600.667,122.167 601.5,122C 602.364,120.303 603.697,119.137 605.5,118.5C 605.938,115.705 606.938,113.372 608.5,111.5 Z"/></g>
<g><path style="opacity:1" fill="#cba5e9" d="M 606.5,108.5 C 607.492,108.328 608.158,108.662 608.5,109.5C 608.5,110.167 608.5,110.833 608.5,111.5C 606.938,113.372 605.938,115.705 605.5,118.5C 603.697,119.137 602.364,120.303 601.5,122C 600.667,122.167 599.833,122.333 599,122.5C 597.624,122.316 596.791,121.649 596.5,120.5C 598.415,120.784 600.081,120.451 601.5,119.5C 601.5,118.833 601.833,118.5 602.5,118.5C 603.117,118.389 603.617,118.056 604,117.5C 603.93,114.008 604.763,111.008 606.5,108.5 Z"/></g>
<g><path style="opacity:1" fill="#4b56ae" d="M 584.5,110.5 C 584.201,112.604 584.534,114.604 585.5,116.5C 587.111,115.68 587.778,114.346 587.5,112.5C 590.059,112.198 592.393,112.532 594.5,113.5C 590.44,112.848 588.44,114.515 588.5,118.5C 585.689,120.089 583.689,119.423 582.5,116.5C 582.5,114.833 582.5,113.167 582.5,111.5C 583.167,111.167 583.833,110.833 584.5,110.5 Z"/></g>
<g><path style="opacity:1" fill="#8c5fbc" d="M 602.5,105.5 C 604.632,105.554 605.965,106.554 606.5,108.5C 604.763,111.008 603.93,114.008 604,117.5C 603.617,118.056 603.117,118.389 602.5,118.5C 602.5,117.833 602.5,117.167 602.5,116.5C 603.468,114.393 603.802,112.059 603.5,109.5C 601.723,109.786 600.056,110.453 598.5,111.5C 597.287,111.253 596.62,110.586 596.5,109.5C 599.267,109.13 601.267,107.796 602.5,105.5 Z"/></g>
<g><path style="opacity:1" fill="#6516ce" d="M 602.5,116.5 C 602.5,117.167 602.5,117.833 602.5,118.5C 601.833,118.5 601.5,118.833 601.5,119.5C 596.705,120.141 595.039,118.307 596.5,114C 598.218,113.654 599.885,113.154 601.5,112.5C 602.429,113.689 602.762,115.022 602.5,116.5 Z"/></g>
<g><path style="opacity:1" fill="#757084" d="M 608.5,109.5 C 610.256,110.552 610.923,112.219 610.5,114.5C 608.952,114.179 608.285,113.179 608.5,111.5C 608.5,110.833 608.5,110.167 608.5,109.5 Z"/></g>
<g><path style="opacity:1" fill="#a0a2cc" d="M 580.5,111.5 C 581.167,111.5 581.833,111.5 582.5,111.5C 582.5,113.167 582.5,114.833 582.5,116.5C 580.847,116.34 579.514,115.674 578.5,114.5C 578.285,112.821 578.952,111.821 580.5,111.5 Z"/></g>
<g><path style="opacity:1" fill="#4a2fb5" d="M 592.5,107.5 C 594.153,107.66 595.486,108.326 596.5,109.5C 596.62,110.586 597.287,111.253 598.5,111.5C 600.056,110.453 601.723,109.786 603.5,109.5C 603.802,112.059 603.468,114.393 602.5,116.5C 602.762,115.022 602.429,113.689 601.5,112.5C 599.885,113.154 598.218,113.654 596.5,114C 595.039,118.307 596.705,120.141 601.5,119.5C 600.081,120.451 598.415,120.784 596.5,120.5C 592.236,119.176 591.569,116.843 594.5,113.5C 592.393,112.532 590.059,112.198 587.5,112.5C 587.778,114.346 587.111,115.68 585.5,116.5C 584.534,114.604 584.201,112.604 584.5,110.5C 584.414,109.504 584.748,108.671 585.5,108C 587.81,107.503 590.143,107.337 592.5,107.5 Z"/></g>
<g><path style="opacity:1" fill="#373371" d="M 592.5,103.5 C 592.5,104.833 592.5,106.167 592.5,107.5C 590.143,107.337 587.81,107.503 585.5,108C 584.748,108.671 584.414,109.504 584.5,110.5C 583.833,110.833 583.167,111.167 582.5,111.5C 581.833,111.5 581.167,111.5 580.5,111.5C 580.5,111.167 580.5,110.833 580.5,110.5C 583.867,107.322 587.7,104.656 592,102.5C 592.399,102.728 592.565,103.062 592.5,103.5 Z"/></g>
<g><path style="opacity:1" fill="#1c1922" d="M 614.5,118.5 C 613.167,117.167 611.833,115.833 610.5,114.5C 610.923,112.219 610.256,110.552 608.5,109.5C 608.158,108.662 607.492,108.328 606.5,108.5C 605.965,106.554 604.632,105.554 602.5,105.5C 599.365,103.977 596.032,103.31 592.5,103.5C 592.565,103.062 592.399,102.728 592,102.5C 587.7,104.656 583.867,107.322 580.5,110.5C 580.617,108.516 579.95,106.85 578.5,105.5C 578.833,104.833 579.167,104.167 579.5,103.5C 583.747,102.978 587.747,101.811 591.5,100C 589.1,99.8142 586.766,99.3142 584.5,98.5C 583.164,96.6254 583.664,95.2921 586,94.5C 589.671,97.1958 593.838,98.1958 598.5,97.5C 598.5,98.8333 598.5,100.167 598.5,101.5C 600.288,101.785 601.955,101.452 603.5,100.5C 600.82,97.853 601.487,96.5196 605.5,96.5C 605.261,98.4672 605.594,100.301 606.5,102C 609.105,103.021 611.772,103.855 614.5,104.5C 615.133,107.495 616.133,110.328 617.5,113C 614.965,113.928 613.965,115.762 614.5,118.5 Z"/></g>
<g><path style="opacity:1" fill="#cac6dc" d="M 592.5,103.5 C 596.032,103.31 599.365,103.977 602.5,105.5C 601.267,107.796 599.267,109.13 596.5,109.5C 595.486,108.326 594.153,107.66 592.5,107.5C 592.5,106.167 592.5,104.833 592.5,103.5 Z"/></g>
<g><path style="opacity:0.983" fill="#4a4a4a" d="M 650.5,113.5 C 655.352,118.875 658.352,125.208 659.5,132.5C 659.5,133.833 659.5,135.167 659.5,136.5C 658.383,130.903 656.049,125.57 652.5,120.5C 651.391,121.59 650.391,121.59 649.5,120.5C 651.745,118.433 652.079,116.1 650.5,113.5 Z"/></g>
<g><path style="opacity:1" fill="#3f175e" d="M 303.5,110.5 C 300.083,112.891 298.75,116.225 299.5,120.5C 298.5,120.5 297.5,120.5 296.5,120.5C 296.348,115.414 298.682,112.08 303.5,110.5 Z"/></g>
<g><path style="opacity:0.639" fill="#7a7a7a" d="M 373.5,114.5 C 375.822,115.802 377.155,117.802 377.5,120.5C 375.281,119.172 373.948,117.172 373.5,114.5 Z"/></g>
<g><path style="opacity:0.243" fill="#7d7d7d" d="M 484.5,118.5 C 488.428,120.093 491.428,122.76 493.5,126.5C 489.88,124.547 486.88,121.881 484.5,118.5 Z"/></g>
<g><path style="opacity:1" fill="#908a95" d="M 610.5,114.5 C 611.833,115.833 613.167,117.167 614.5,118.5C 614.5,121.167 614.5,123.833 614.5,126.5C 614.5,126.833 614.5,127.167 614.5,127.5C 613.833,127.5 613.5,127.167 613.5,126.5C 613.567,125.041 613.234,123.708 612.5,122.5C 611.032,120.084 610.365,117.417 610.5,114.5 Z"/></g>
<g><path style="opacity:0.325" fill="#7b7b7b" d="M 258.5,116.5 C 258.316,119.337 256.982,121.337 254.5,122.5C 255.351,120.118 256.684,118.118 258.5,116.5 Z"/></g>
<g><path style="opacity:1" fill="#b6e5c2" d="M 578.5,114.5 C 579.514,115.674 580.847,116.34 582.5,116.5C 583.689,119.423 585.689,120.089 588.5,118.5C 590.929,119.758 592.929,121.591 594.5,124C 600.325,123.053 606.325,122.553 612.5,122.5C 613.234,123.708 613.567,125.041 613.5,126.5C 612.5,126.5 611.5,126.5 610.5,126.5C 609.281,124.699 607.448,123.699 605,123.5C 600.188,127.458 595.355,127.458 590.5,123.5C 590.03,122.307 589.03,121.64 587.5,121.5C 584.014,123.316 580.348,124.649 576.5,125.5C 576.5,123.167 576.5,120.833 576.5,118.5C 576.157,116.517 576.824,115.183 578.5,114.5 Z"/></g>
<g><path style="opacity:1" fill="#936ea5" d="M 296.5,120.5 C 297.5,120.5 298.5,120.5 299.5,120.5C 298.85,122.435 298.517,124.435 298.5,126.5C 298.158,127.338 297.492,127.672 296.5,127.5C 296.5,126.833 296.5,126.167 296.5,125.5C 296.5,123.833 296.5,122.167 296.5,120.5 Z"/></g>
<g><path style="opacity:0.11" fill="#999999" d="M 415.5,120.5 C 417.176,121.183 417.843,122.517 417.5,124.5C 417.5,126.167 417.5,127.833 417.5,129.5C 416.087,126.781 415.42,123.781 415.5,120.5 Z"/></g>
<g><path style="opacity:0.616" fill="#757575" d="M 377.5,120.5 C 379.656,123.437 381.156,126.771 382,130.5C 383.997,139.121 384.497,147.788 383.5,156.5C 382.833,157.167 382.167,157.833 381.5,158.5C 381.831,149.808 381.498,141.141 380.5,132.5C 378.874,128.629 377.874,124.629 377.5,120.5 Z"/></g>
<g><path style="opacity:1" fill="#61894f" d="M 576.5,118.5 C 576.5,120.833 576.5,123.167 576.5,125.5C 576.167,126.5 575.5,127.167 574.5,127.5C 573.945,123.988 574.612,120.988 576.5,118.5 Z"/></g>
<g><path style="opacity:1" fill="#80d472" d="M 590.5,123.5 C 585.638,124.082 580.971,125.582 576.5,128C 575.62,129.356 575.286,130.856 575.5,132.5C 575.167,132.5 574.833,132.5 574.5,132.5C 574.5,130.833 574.5,129.167 574.5,127.5C 575.5,127.167 576.167,126.5 576.5,125.5C 580.348,124.649 584.014,123.316 587.5,121.5C 589.03,121.64 590.03,122.307 590.5,123.5 Z"/></g>
<g><path style="opacity:1" fill="#72e849" d="M 590.5,123.5 C 590.241,127.068 588.241,128.401 584.5,127.5C 584.5,129.167 584.5,130.833 584.5,132.5C 583.866,133.947 582.699,134.613 581,134.5C 579.2,133.622 577.367,132.955 575.5,132.5C 575.286,130.856 575.62,129.356 576.5,128C 580.971,125.582 585.638,124.082 590.5,123.5 Z"/></g>
<g><path style="opacity:1" fill="#e1a7f1" d="M 322.5,132.5 C 316.209,129.587 309.542,128.254 302.5,128.5C 302.5,128.167 302.5,127.833 302.5,127.5C 303.793,126.842 305.293,126.508 307,126.5C 311.4,127.701 315.9,128.535 320.5,129C 321.823,129.816 322.489,130.983 322.5,132.5 Z"/></g>
<g><path style="opacity:1" fill="#ad47ce" d="M 303.5,110.5 C 304.5,110.5 305.5,110.5 306.5,110.5C 307.806,111.467 308.473,112.801 308.5,114.5C 310.677,114.586 312.677,115.253 314.5,116.5C 315.298,116.043 315.631,115.376 315.5,114.5C 315.5,114.167 315.5,113.833 315.5,113.5C 318.145,111.758 321.145,111.091 324.5,111.5C 324.5,114.5 324.5,117.5 324.5,120.5C 325.5,120.5 326.5,120.5 327.5,120.5C 327.833,119.5 328.5,118.833 329.5,118.5C 331.042,117.699 332.708,117.366 334.5,117.5C 335.451,118.919 335.784,120.585 335.5,122.5C 335.5,122.833 335.5,123.167 335.5,123.5C 334.5,123.5 333.5,123.5 332.5,123.5C 333.263,126.141 333.43,128.808 333,131.5C 331.008,132.328 329.508,133.661 328.5,135.5C 326.958,136.301 325.292,136.634 323.5,136.5C 323.672,135.508 323.338,134.842 322.5,134.5C 322.5,133.833 322.5,133.167 322.5,132.5C 322.489,130.983 321.823,129.816 320.5,129C 315.9,128.535 311.4,127.701 307,126.5C 305.293,126.508 303.793,126.842 302.5,127.5C 301.041,127.567 299.708,127.234 298.5,126.5C 298.517,124.435 298.85,122.435 299.5,120.5C 298.75,116.225 300.083,112.891 303.5,110.5 Z"/></g>
<g><path style="opacity:1" fill="#ad1de8" d="M 327.5,120.5 C 329.764,119.781 332.097,119.448 334.5,119.5C 334.5,120.5 334.5,121.5 334.5,122.5C 333.5,122.5 332.5,122.5 331.5,122.5C 331.5,125.5 331.5,128.5 331.5,131.5C 329.738,131.357 328.071,131.691 326.5,132.5C 324.227,131.625 323.227,129.958 323.5,127.5C 318.527,126.372 313.527,125.372 308.5,124.5C 308.357,122.738 308.691,121.071 309.5,119.5C 315.24,117.464 320.24,118.464 324.5,122.5C 325.739,122.058 326.739,121.391 327.5,120.5 Z"/></g>
<g><path style="opacity:1" fill="#efb0f6" d="M 304.5,118.5 C 306.975,119.687 307.975,121.687 307.5,124.5C 303.843,123.853 302.843,121.853 304.5,118.5 Z"/></g>
<g><path style="opacity:0.278" fill="#797979" d="M 468.5,120.5 C 466.623,124.155 464.957,127.822 463.5,131.5C 463.33,126.848 464.997,123.181 468.5,120.5 Z"/></g>
<g><path style="opacity:1" fill="#e0ccf5" d="M 302.5,128.5 C 309.542,128.254 316.209,129.587 322.5,132.5C 322.5,133.167 322.5,133.833 322.5,134.5C 321.609,133.89 320.609,133.557 319.5,133.5C 319.389,132.883 319.056,132.383 318.5,132C 314.867,131.717 311.367,130.883 308,129.5C 306.93,129.528 306.097,129.861 305.5,130.5C 304.167,130.5 302.833,130.5 301.5,130.5C 301.833,129.833 302.167,129.167 302.5,128.5 Z"/></g>
<g><path style="opacity:0.537" fill="#6d6d6d" d="M 493.5,126.5 C 499.316,128.299 505.316,128.965 511.5,128.5C 511.082,129.222 510.416,129.722 509.5,130C 505.833,130.667 502.167,130.667 498.5,130C 496.416,129.303 494.749,128.136 493.5,126.5 Z"/></g>
<g><path style="opacity:1" fill="#90ec70" d="M 590.5,123.5 C 595.355,127.458 600.188,127.458 605,123.5C 607.448,123.699 609.281,124.699 610.5,126.5C 606.456,125.958 602.789,126.791 599.5,129C 600.305,130.113 600.972,131.279 601.5,132.5C 600.833,132.5 600.167,132.5 599.5,132.5C 597.395,131.181 595.395,131.514 593.5,133.5C 591.226,133.03 589.226,132.03 587.5,130.5C 586.482,131.193 585.482,131.859 584.5,132.5C 584.5,130.833 584.5,129.167 584.5,127.5C 588.241,128.401 590.241,127.068 590.5,123.5 Z"/></g>
<g><path style="opacity:0.302" fill="#6a6a6a" d="M 218.5,128.5 C 223.167,128.5 227.833,128.5 232.5,128.5C 230.538,130.017 228.205,130.684 225.5,130.5C 222.795,130.684 220.462,130.017 218.5,128.5 Z"/></g>
<g><path style="opacity:1" fill="#739dcf" d="M 298.5,126.5 C 299.708,127.234 301.041,127.567 302.5,127.5C 302.5,127.833 302.5,128.167 302.5,128.5C 302.167,129.167 301.833,129.833 301.5,130.5C 299.833,130.5 298.167,130.5 296.5,130.5C 296.5,130.167 296.5,129.833 296.5,129.5C 296.5,128.833 296.5,128.167 296.5,127.5C 297.492,127.672 298.158,127.338 298.5,126.5 Z"/></g>
<g><path style="opacity:0.959" fill="#3c3c3c" d="M 139.5,124.5 C 140.832,133.141 141.498,142.141 141.5,151.5C 141.498,160.859 140.832,169.859 139.5,178.5C 139.5,160.5 139.5,142.5 139.5,124.5 Z"/></g>
<g><path style="opacity:1" fill="#e8e7f5" d="M 319.5,133.5 C 314.633,133.882 309.966,133.215 305.5,131.5C 305.5,131.167 305.5,130.833 305.5,130.5C 306.097,129.861 306.93,129.528 308,129.5C 311.367,130.883 314.867,131.717 318.5,132C 319.056,132.383 319.389,132.883 319.5,133.5 Z"/></g>
<g><path style="opacity:1" fill="#4ec4d9" d="M 296.5,130.5 C 298.167,130.5 299.833,130.5 301.5,130.5C 302.833,130.5 304.167,130.5 305.5,130.5C 305.5,130.833 305.5,131.167 305.5,131.5C 304.6,134.097 305.267,136.431 307.5,138.5C 306.754,139.736 306.421,141.07 306.5,142.5C 304.076,142.808 301.743,142.474 299.5,141.5C 299.121,139.787 298.121,138.787 296.5,138.5C 296.5,135.833 296.5,133.167 296.5,130.5 Z"/></g>
<g><path style="opacity:1" fill="#44eb76" d="M 610.5,126.5 C 611.5,126.5 612.5,126.5 613.5,126.5C 613.5,127.167 613.833,127.5 614.5,127.5C 614.5,129.5 614.5,131.5 614.5,133.5C 613.258,134.043 611.925,134.377 610.5,134.5C 607.725,133.077 604.725,132.411 601.5,132.5C 600.972,131.279 600.305,130.113 599.5,129C 602.789,126.791 606.456,125.958 610.5,126.5 Z"/></g>
<g><path style="opacity:1" fill="#eba1f6" d="M 335.5,123.5 C 335.763,127.6 335.43,131.6 334.5,135.5C 332.549,134.359 330.549,134.359 328.5,135.5C 329.508,133.661 331.008,132.328 333,131.5C 333.43,128.808 333.263,126.141 332.5,123.5C 333.5,123.5 334.5,123.5 335.5,123.5 Z"/></g>
<g><path style="opacity:1" fill="#b9e99a" d="M 599.5,132.5 C 594.749,134.141 589.749,135.141 584.5,135.5C 582.5,135.5 580.5,135.5 578.5,135.5C 577.167,135.5 575.833,135.5 574.5,135.5C 574.5,134.833 574.5,134.167 574.5,133.5C 574.5,133.167 574.5,132.833 574.5,132.5C 574.833,132.5 575.167,132.5 575.5,132.5C 577.367,132.955 579.2,133.622 581,134.5C 582.699,134.613 583.866,133.947 584.5,132.5C 585.482,131.859 586.482,131.193 587.5,130.5C 589.226,132.03 591.226,133.03 593.5,133.5C 595.395,131.514 597.395,131.181 599.5,132.5 Z"/></g>
<g><path style="opacity:0.215" fill="#797979" d="M 85.5,43.5 C 85.477,45.9267 84.977,48.26 84,50.5C 83.3333,90.5 83.3333,130.5 84,170.5C 84.8622,174.62 86.0289,178.62 87.5,182.5C 85.665,181.878 84.4983,180.544 84,178.5C 83.3333,175.833 82.6667,173.167 82,170.5C 81.3333,130.833 81.3333,91.1667 82,51.5C 82.5,49.5 83,47.5 83.5,45.5C 83.7472,44.2867 84.4138,43.62 85.5,43.5 Z"/></g>
<g><path style="opacity:1" fill="#81d9d9" d="M 305.5,131.5 C 309.966,133.215 314.633,133.882 319.5,133.5C 320.609,133.557 321.609,133.89 322.5,134.5C 323.338,134.842 323.672,135.508 323.5,136.5C 318.551,135.221 313.551,135.221 308.5,136.5C 309.521,137.901 310.521,139.235 311.5,140.5C 311.167,141.167 310.833,141.833 310.5,142.5C 309.167,142.5 307.833,142.5 306.5,142.5C 306.421,141.07 306.754,139.736 307.5,138.5C 305.267,136.431 304.6,134.097 305.5,131.5 Z"/></g>
<g><path style="opacity:0.816" fill="#363636" d="M 417.5,124.5 C 418.831,132.807 419.498,141.473 419.5,150.5C 419.498,159.527 418.831,168.193 417.5,176.5C 417.5,169.5 417.5,162.5 417.5,155.5C 417.5,146.833 417.5,138.167 417.5,129.5C 417.5,127.833 417.5,126.167 417.5,124.5 Z"/></g>
<g><path style="opacity:0.071" fill="#a0a0a0" d="M 463.5,132.5 C 463.461,136.733 462.795,140.733 461.5,144.5C 461.5,143.167 461.5,141.833 461.5,140.5C 461.111,137.447 461.777,134.78 463.5,132.5 Z"/></g>
<g><path style="opacity:1" fill="#54e6c1" d="M 323.5,136.5 C 323.5,137.167 323.5,137.833 323.5,138.5C 323.5,139.167 323.5,139.833 323.5,140.5C 321.833,139.167 320.167,139.167 318.5,140.5C 316.167,140.5 313.833,140.5 311.5,140.5C 310.521,139.235 309.521,137.901 308.5,136.5C 313.551,135.221 318.551,135.221 323.5,136.5 Z"/></g>
<g><path style="opacity:1" fill="#f4eeee" d="M 578.5,136.5 C 578.5,136.167 578.5,135.833 578.5,135.5C 580.5,135.5 582.5,135.5 584.5,135.5C 591.6,135.78 598.6,135.78 605.5,135.5C 605.5,136.5 605.5,137.5 605.5,138.5C 603.517,138.157 602.183,138.824 601.5,140.5C 600.662,140.842 600.328,141.508 600.5,142.5C 597.931,140.977 595.264,139.643 592.5,138.5C 588.285,136.564 583.619,135.897 578.5,136.5 Z"/></g>
<g><path style="opacity:1" fill="#c98ebb" d="M 578.5,136.5 C 583.619,135.897 588.285,136.564 592.5,138.5C 592.5,139.167 592.5,139.833 592.5,140.5C 589.904,139.735 587.237,139.401 584.5,139.5C 582.156,139.06 580.156,138.06 578.5,136.5 Z"/></g>
<g><path style="opacity:0.212" fill="#bcbcbc" d="M 745.5,138.5 C 740.167,138.5 734.833,138.5 729.5,138.5C 734.821,135.962 740.154,135.962 745.5,138.5 Z"/></g>
<g><path style="opacity:1" fill="#415e60" d="M 296.5,129.5 C 296.5,129.833 296.5,130.167 296.5,130.5C 296.5,133.167 296.5,135.833 296.5,138.5C 296.5,140.5 296.5,142.5 296.5,144.5C 295.833,144.167 295.167,143.833 294.5,143.5C 294.362,138.586 295.028,133.919 296.5,129.5 Z"/></g>
<g><path style="opacity:1" fill="#c0adc2" d="M 335.5,122.5 C 336.167,122.5 336.5,122.833 336.5,123.5C 337.439,128.674 337.773,133.674 337.5,138.5C 338.126,145.584 337.459,152.25 335.5,158.5C 335.5,157.167 335.5,155.833 335.5,154.5C 333.821,154.715 332.821,154.048 332.5,152.5C 333.833,152.5 335.167,152.5 336.5,152.5C 336.947,147.949 336.281,143.616 334.5,139.5C 333.406,141.836 332.073,141.836 330.5,139.5C 332.769,138.995 334.103,137.662 334.5,135.5C 335.43,131.6 335.763,127.6 335.5,123.5C 335.5,123.167 335.5,122.833 335.5,122.5 Z"/></g>
<g><path style="opacity:1" fill="#adeec4" d="M 599.5,132.5 C 600.167,132.5 600.833,132.5 601.5,132.5C 604.725,132.411 607.725,133.077 610.5,134.5C 611.925,134.377 613.258,134.043 614.5,133.5C 614.5,136.167 614.5,138.833 614.5,141.5C 612.167,141.5 609.833,141.5 607.5,141.5C 607.715,139.821 607.048,138.821 605.5,138.5C 605.5,137.5 605.5,136.5 605.5,135.5C 598.6,135.78 591.6,135.78 584.5,135.5C 589.749,135.141 594.749,134.141 599.5,132.5 Z"/></g>
<g><path style="opacity:0.827" fill="#515151" d="M 729.5,138.5 C 734.833,138.5 740.167,138.5 745.5,138.5C 749.626,138.572 753.626,139.239 757.5,140.5C 757.38,141.586 756.713,142.253 755.5,142.5C 743.512,138.502 731.512,138.502 719.5,142.5C 722.309,140.103 725.642,138.77 729.5,138.5 Z"/></g>
<g><path style="opacity:0.998" fill="#0e0e0e" d="M 765.5,154.5 C 762.583,154.635 759.916,153.968 757.5,152.5C 755.463,151.154 753.463,149.82 751.5,148.5C 750.665,147.057 749.332,146.057 747.5,145.5C 744.833,145.167 742.167,144.833 739.5,144.5C 736.41,144.522 733.743,145.188 731.5,146.5C 729.517,146.157 728.183,146.824 727.5,148.5C 726.307,148.97 725.64,149.97 725.5,151.5C 725.64,153.03 726.307,154.03 727.5,154.5C 727.577,155.75 728.244,156.583 729.5,157C 736.174,158.284 742.84,159.451 749.5,160.5C 750.167,160.5 750.833,160.5 751.5,160.5C 752.183,162.176 753.517,162.843 755.5,162.5C 755.833,162.5 756.167,162.5 756.5,162.5C 757.635,164.213 759.302,164.88 761.5,164.5C 761.5,165.833 762.167,166.5 763.5,166.5C 766.95,168.063 768.95,170.73 769.5,174.5C 769.5,178.5 769.5,182.5 769.5,186.5C 766.687,187.446 765.354,189.446 765.5,192.5C 764.167,192.5 763.5,193.167 763.5,194.5C 762.167,194.5 761.5,195.167 761.5,196.5C 757.906,198.96 753.906,200.293 749.5,200.5C 744.167,200.5 738.833,200.5 733.5,200.5C 729.277,200.661 725.277,199.994 721.5,198.5C 720.167,198.5 719.5,199.167 719.5,200.5C 717.5,200.5 715.5,200.5 713.5,200.5C 713.5,194.5 713.5,188.5 713.5,182.5C 715.5,182.5 717.5,182.5 719.5,182.5C 720.058,186.725 722.391,189.391 726.5,190.5C 728.833,191.167 731.167,191.833 733.5,192.5C 735.397,193.805 737.731,194.471 740.5,194.5C 743.269,194.471 745.603,193.805 747.5,192.5C 750.969,193.113 752.969,191.779 753.5,188.5C 754.586,188.38 755.253,187.713 755.5,186.5C 754.491,183.663 752.491,182.33 749.5,182.5C 748.833,182.5 748.167,182.5 747.5,182.5C 746.082,180.692 744.082,180.025 741.5,180.5C 740.167,180.5 738.833,180.5 737.5,180.5C 736.082,178.692 734.082,178.025 731.5,178.5C 730.082,176.692 728.082,176.025 725.5,176.5C 722.504,175.73 719.837,174.396 717.5,172.5C 717.475,169.821 716.142,168.488 713.5,168.5C 711.896,167.713 711.229,166.38 711.5,164.5C 711.5,160.167 711.5,155.833 711.5,151.5C 711.229,149.62 711.896,148.287 713.5,147.5C 716.089,146.581 718.089,144.914 719.5,142.5C 731.512,138.502 743.512,138.502 755.5,142.5C 756.713,142.253 757.38,141.586 757.5,140.5C 757.414,139.504 757.748,138.671 758.5,138C 760.769,137.242 762.936,137.409 765,138.5C 765.554,141.658 766.054,144.825 766.5,148C 765.926,150.464 765.593,152.631 765.5,154.5 Z"/></g>
<g><path style="opacity:1" fill="#b04a86" d="M 574.5,135.5 C 575.833,135.5 577.167,135.5 578.5,135.5C 578.5,135.833 578.5,136.167 578.5,136.5C 580.156,138.06 582.156,139.06 584.5,139.5C 581.72,140.233 578.887,140.566 576,140.5C 575.502,143.817 575.335,147.15 575.5,150.5C 574.662,150.842 574.328,151.508 574.5,152.5C 573.196,146.933 573.196,141.266 574.5,135.5 Z"/></g>
<g><path style="opacity:1" fill="#426c4d" d="M 614.5,126.5 C 616.238,131.217 616.904,136.217 616.5,141.5C 615.833,141.5 615.167,141.5 614.5,141.5C 614.5,138.833 614.5,136.167 614.5,133.5C 614.5,131.5 614.5,129.5 614.5,127.5C 614.5,127.167 614.5,126.833 614.5,126.5 Z"/></g>
<g><path style="opacity:1" fill="#9dcb9d" d="M 311.5,140.5 C 313.833,140.5 316.167,140.5 318.5,140.5C 319.15,142.435 319.483,144.435 319.5,146.5C 318.596,145.791 318.263,144.791 318.5,143.5C 316.167,143.5 313.833,143.5 311.5,143.5C 310.833,143.5 310.5,143.167 310.5,142.5C 310.833,141.833 311.167,141.167 311.5,140.5 Z"/></g>
<g><path style="opacity:1" fill="#5ad492" d="M 323.5,140.5 C 325.975,141.687 326.975,143.687 326.5,146.5C 324.167,146.5 321.833,146.5 319.5,146.5C 319.483,144.435 319.15,142.435 318.5,140.5C 320.167,139.167 321.833,139.167 323.5,140.5 Z"/></g>
<g><path style="opacity:1" fill="#ca97d6" d="M 614.5,148.5 C 613.833,148.5 613.167,148.5 612.5,148.5C 611.126,145.645 608.793,144.145 605.5,144C 603.443,140.7 602.443,140.867 602.5,144.5C 601.167,144.5 600.5,143.833 600.5,142.5C 600.328,141.508 600.662,140.842 601.5,140.5C 602.708,139.766 604.041,139.433 605.5,139.5C 605.351,140.552 605.517,141.552 606,142.5C 608.447,143.406 610.947,144.239 613.5,145C 614.337,146.011 614.67,147.178 614.5,148.5 Z"/></g>
<g><path style="opacity:1" fill="#aaa9b9" d="M 605.5,138.5 C 607.048,138.821 607.715,139.821 607.5,141.5C 609.833,141.5 612.167,141.5 614.5,141.5C 615.167,141.5 615.833,141.5 616.5,141.5C 616.5,142.167 616.5,142.833 616.5,143.5C 616.5,144.833 616.5,146.167 616.5,147.5C 615.833,147.833 615.167,148.167 614.5,148.5C 614.67,147.178 614.337,146.011 613.5,145C 610.947,144.239 608.447,143.406 606,142.5C 605.517,141.552 605.351,140.552 605.5,139.5C 604.041,139.433 602.708,139.766 601.5,140.5C 602.183,138.824 603.517,138.157 605.5,138.5 Z"/></g>
<g><path style="opacity:0.146" fill="#878787" d="M 751.5,148.5 C 745.022,145.87 738.355,145.204 731.5,146.5C 733.743,145.188 736.41,144.522 739.5,144.5C 742.167,144.833 744.833,145.167 747.5,145.5C 749.332,146.057 750.665,147.057 751.5,148.5 Z"/></g>
<g><path style="opacity:1" fill="#eeeff4" d="M 334.5,135.5 C 334.103,137.662 332.769,138.995 330.5,139.5C 332.073,141.836 333.406,141.836 334.5,139.5C 336.281,143.616 336.947,147.949 336.5,152.5C 335.167,152.5 333.833,152.5 332.5,152.5C 331.521,155.625 331.187,158.958 331.5,162.5C 330.5,162.5 329.5,162.5 328.5,162.5C 328.834,159.812 328.168,157.479 326.5,155.5C 327.089,152.266 329.089,150.933 332.5,151.5C 332.5,149.833 332.5,148.167 332.5,146.5C 331.167,146.5 329.833,146.5 328.5,146.5C 329.658,141.884 327.992,139.217 323.5,138.5C 323.5,137.833 323.5,137.167 323.5,136.5C 325.292,136.634 326.958,136.301 328.5,135.5C 330.549,134.359 332.549,134.359 334.5,135.5 Z"/></g>
<g><path style="opacity:0.573" fill="#717171" d="M 530.5,128.5 C 529.237,140.836 529.237,153.17 530.5,165.5C 526.5,153.167 526.5,140.833 530.5,128.5 Z"/></g>
<g><path style="opacity:1" fill="#ed1ed6" d="M 594.5,142.5 C 594.5,143.167 594.5,143.833 594.5,144.5C 593.957,144.56 593.624,144.893 593.5,145.5C 594.826,146.642 595.826,147.976 596.5,149.5C 591.778,150.194 587.112,150.194 582.5,149.5C 582.643,147.738 582.309,146.071 581.5,144.5C 581.977,143.522 582.643,142.689 583.5,142C 587.148,141.938 590.815,142.105 594.5,142.5 Z"/></g>
<g><path style="opacity:1" fill="#da4fbd" d="M 594.5,144.5 C 596.122,145.122 597.455,146.122 598.5,147.5C 597.833,153.5 600.5,156.167 606.5,155.5C 606.187,152.753 606.52,150.086 607.5,147.5C 609.071,148.309 610.738,148.643 612.5,148.5C 613.167,148.5 613.833,148.5 614.5,148.5C 614.5,151.833 614.5,155.167 614.5,158.5C 610.5,158.5 606.5,158.5 602.5,158.5C 602.5,159.833 602.5,161.167 602.5,162.5C 599.918,162.025 597.918,162.692 596.5,164.5C 595.833,164.5 595.167,164.5 594.5,164.5C 592.751,161.625 590.085,160.292 586.5,160.5C 586.5,159.167 586.5,157.833 586.5,156.5C 590.009,159.115 594.009,160.115 598.5,159.5C 598.101,155.989 597.434,152.656 596.5,149.5C 595.826,147.976 594.826,146.642 593.5,145.5C 593.624,144.893 593.957,144.56 594.5,144.5 Z"/></g>
<g><path style="opacity:1" fill="#e0ede6" d="M 296.5,138.5 C 298.121,138.787 299.121,139.787 299.5,141.5C 301.743,142.474 304.076,142.808 306.5,142.5C 307.833,142.5 309.167,142.5 310.5,142.5C 310.5,143.167 310.833,143.5 311.5,143.5C 311.5,144.167 311.167,144.5 310.5,144.5C 309.566,145.568 309.232,146.901 309.5,148.5C 305.879,147.627 302.212,146.961 298.5,146.5C 297.833,146.5 297.167,146.5 296.5,146.5C 296.5,145.833 296.5,145.167 296.5,144.5C 296.5,142.5 296.5,140.5 296.5,138.5 Z"/></g>
<g><path style="opacity:0.537" fill="#767676" d="M 719.5,142.5 C 718.089,144.914 716.089,146.581 713.5,147.5C 714.911,145.086 716.911,143.419 719.5,142.5 Z"/></g>
<g><path style="opacity:0.027" fill="#b4b4b4" d="M 731.5,146.5 C 730.329,147.345 728.995,148.011 727.5,148.5C 728.183,146.824 729.517,146.157 731.5,146.5 Z"/></g>
<g><path style="opacity:1" fill="#adeecd" d="M 323.5,138.5 C 327.992,139.217 329.658,141.884 328.5,146.5C 329.833,146.5 331.167,146.5 332.5,146.5C 332.5,148.167 332.5,149.833 332.5,151.5C 329.089,150.933 327.089,152.266 326.5,155.5C 326.167,155.5 325.833,155.5 325.5,155.5C 324.508,155.672 323.842,155.338 323.5,154.5C 323.106,152.29 321.773,150.957 319.5,150.5C 319.5,149.167 319.5,147.833 319.5,146.5C 321.833,146.5 324.167,146.5 326.5,146.5C 326.975,143.687 325.975,141.687 323.5,140.5C 323.5,139.833 323.5,139.167 323.5,138.5 Z"/></g>
<g><path style="opacity:1" fill="#fbcbf8" d="M 592.5,138.5 C 595.264,139.643 597.931,140.977 600.5,142.5C 600.5,143.833 601.167,144.5 602.5,144.5C 603.968,146.916 604.635,149.583 604.5,152.5C 603.167,152.5 601.833,152.5 600.5,152.5C 600.88,150.302 600.213,148.635 598.5,147.5C 597.455,146.122 596.122,145.122 594.5,144.5C 594.5,143.833 594.5,143.167 594.5,142.5C 594.5,141.167 593.833,140.5 592.5,140.5C 592.5,139.833 592.5,139.167 592.5,138.5 Z"/></g>
<g><path style="opacity:1" fill="#e5b5a6" d="M 310.5,144.5 C 310.795,146.735 310.461,148.735 309.5,150.5C 305.173,150.498 301.507,149.165 298.5,146.5C 302.212,146.961 305.879,147.627 309.5,148.5C 309.232,146.901 309.566,145.568 310.5,144.5 Z"/></g>
<g><path style="opacity:1" fill="#e7af7d" d="M 311.5,143.5 C 313.833,143.5 316.167,143.5 318.5,143.5C 318.263,144.791 318.596,145.791 319.5,146.5C 319.5,147.833 319.5,149.167 319.5,150.5C 318.167,150.5 316.833,150.5 315.5,150.5C 315.5,151.833 315.5,153.167 315.5,154.5C 314.5,154.5 313.5,154.5 312.5,154.5C 312.5,155.833 312.5,157.167 312.5,158.5C 309.594,158.916 306.761,159.582 304,160.5C 301.127,160.605 299.627,159.272 299.5,156.5C 299.833,156.5 300.167,156.5 300.5,156.5C 301.158,157.398 301.824,158.398 302.5,159.5C 304.071,158.691 305.738,158.357 307.5,158.5C 307.888,156.315 308.888,154.482 310.5,153C 310.43,152.235 310.097,151.735 309.5,151.5C 309.5,151.167 309.5,150.833 309.5,150.5C 310.461,148.735 310.795,146.735 310.5,144.5C 311.167,144.5 311.5,144.167 311.5,143.5 Z"/></g>
<g><path style="opacity:0.977" fill="#353535" d="M 182.5,143.5 C 182.5,155.167 182.5,166.833 182.5,178.5C 181.778,178.082 181.278,177.416 181,176.5C 180.833,171 180.667,165.5 180.5,160C 180.505,154.124 181.171,148.624 182.5,143.5 Z"/></g>
<g><path style="opacity:1" fill="#80426d" d="M 616.5,147.5 C 616.666,152.844 616.499,158.177 616,163.5C 615.617,164.056 615.117,164.389 614.5,164.5C 614.5,163.833 614.5,163.167 614.5,162.5C 614.5,161.167 614.5,159.833 614.5,158.5C 614.5,155.167 614.5,151.833 614.5,148.5C 615.167,148.167 615.833,147.833 616.5,147.5 Z"/></g>
<g><path style="opacity:1" fill="#cd6c45" d="M 296.5,146.5 C 297.167,146.5 297.833,146.5 298.5,146.5C 301.507,149.165 305.173,150.498 309.5,150.5C 309.5,150.833 309.5,151.167 309.5,151.5C 306.646,152.381 303.646,152.547 300.5,152C 299.272,153.49 299.272,154.99 300.5,156.5C 300.167,156.5 299.833,156.5 299.5,156.5C 298.5,156.5 297.5,156.5 296.5,156.5C 296.5,153.167 296.5,149.833 296.5,146.5 Z"/></g>
<g><path style="opacity:0.243" fill="#7e7e7e" d="M 727.5,148.5 C 726.167,150.5 726.167,152.5 727.5,154.5C 726.307,154.03 725.64,153.03 725.5,151.5C 725.64,149.97 726.307,148.97 727.5,148.5 Z"/></g>
<g><path style="opacity:1" fill="#e57427" d="M 309.5,151.5 C 310.097,151.735 310.43,152.235 310.5,153C 308.888,154.482 307.888,156.315 307.5,158.5C 305.738,158.357 304.071,158.691 302.5,159.5C 301.824,158.398 301.158,157.398 300.5,156.5C 299.272,154.99 299.272,153.49 300.5,152C 303.646,152.547 306.646,152.381 309.5,151.5 Z"/></g>
<g><path style="opacity:1" fill="#ec2db6" d="M 584.5,139.5 C 587.237,139.401 589.904,139.735 592.5,140.5C 593.833,140.5 594.5,141.167 594.5,142.5C 590.815,142.105 587.148,141.938 583.5,142C 582.643,142.689 581.977,143.522 581.5,144.5C 582.309,146.071 582.643,147.738 582.5,149.5C 587.112,150.194 591.778,150.194 596.5,149.5C 597.434,152.656 598.101,155.989 598.5,159.5C 594.009,160.115 590.009,159.115 586.5,156.5C 586.489,154.983 585.823,153.816 584.5,153C 581.421,152.027 578.421,151.194 575.5,150.5C 575.335,147.15 575.502,143.817 576,140.5C 578.887,140.566 581.72,140.233 584.5,139.5 Z"/></g>
<g><path style="opacity:1" fill="#cb67c3" d="M 612.5,148.5 C 610.738,148.643 609.071,148.309 607.5,147.5C 606.52,150.086 606.187,152.753 606.5,155.5C 600.5,156.167 597.833,153.5 598.5,147.5C 600.213,148.635 600.88,150.302 600.5,152.5C 601.833,152.5 603.167,152.5 604.5,152.5C 604.635,149.583 603.968,146.916 602.5,144.5C 602.443,140.867 603.443,140.7 605.5,144C 608.793,144.145 611.126,145.645 612.5,148.5 Z"/></g>
<g><path style="opacity:0.859" fill="#686868" d="M 757.5,152.5 C 759.916,153.968 762.583,154.635 765.5,154.5C 764.895,156.026 763.729,157.026 762,157.5C 759.585,156.589 758.085,154.922 757.5,152.5 Z"/></g>
<g><path style="opacity:1" fill="#bc4e31" d="M 323.5,154.5 C 323.842,155.338 324.508,155.672 325.5,155.5C 326.038,157.117 326.371,158.784 326.5,160.5C 325.5,160.5 324.5,160.5 323.5,160.5C 323.5,159.167 323.5,157.833 323.5,156.5C 321.167,156.5 318.833,156.5 316.5,156.5C 316.5,159.167 316.5,161.833 316.5,164.5C 315.362,161.696 315.195,158.696 316,155.5C 318.381,154.565 320.881,154.232 323.5,154.5 Z"/></g>
<g><path style="opacity:0.15" fill="#9d9d9d" d="M 136.5,118.5 C 138.545,119.923 139.545,121.923 139.5,124.5C 139.5,142.5 139.5,160.5 139.5,178.5C 138.967,182.702 136.633,185.369 132.5,186.5C 135.623,183.924 137.457,180.59 138,176.5C 138.667,158.833 138.667,141.167 138,123.5C 136.991,121.975 136.491,120.308 136.5,118.5 Z"/></g>
<g><path style="opacity:1" fill="#c68776" d="M 319.5,150.5 C 321.773,150.957 323.106,152.29 323.5,154.5C 320.881,154.232 318.381,154.565 316,155.5C 315.195,158.696 315.362,161.696 316.5,164.5C 316.5,165.167 316.5,165.833 316.5,166.5C 315.167,163.833 313.833,161.167 312.5,158.5C 312.5,157.167 312.5,155.833 312.5,154.5C 313.5,154.5 314.5,154.5 315.5,154.5C 315.5,153.167 315.5,151.833 315.5,150.5C 316.833,150.5 318.167,150.5 319.5,150.5 Z"/></g>
<g><path style="opacity:0.575" fill="#727272" d="M 727.5,154.5 C 734.989,156.128 742.323,158.128 749.5,160.5C 742.84,159.451 736.174,158.284 729.5,157C 728.244,156.583 727.577,155.75 727.5,154.5 Z"/></g>
<g><path style="opacity:1" fill="#faf2f3" d="M 574.5,154.5 C 576.857,154.337 579.19,154.503 581.5,155C 582.337,156.011 582.67,157.178 582.5,158.5C 581.167,158.5 579.833,158.5 578.5,158.5C 578.5,160.5 578.5,162.5 578.5,164.5C 577.167,164.5 575.833,164.5 574.5,164.5C 574.5,161.167 574.5,157.833 574.5,154.5 Z"/></g>
<g><path style="opacity:1" fill="#f4c6e4" d="M 575.5,150.5 C 578.421,151.194 581.421,152.027 584.5,153C 585.823,153.816 586.489,154.983 586.5,156.5C 586.5,157.833 586.5,159.167 586.5,160.5C 590.085,160.292 592.751,161.625 594.5,164.5C 591.929,165.543 589.595,164.877 587.5,162.5C 586.571,163.689 586.238,165.022 586.5,166.5C 585.833,166.5 585.167,166.5 584.5,166.5C 583.082,164.692 581.082,164.025 578.5,164.5C 578.5,162.5 578.5,160.5 578.5,158.5C 579.833,158.5 581.167,158.5 582.5,158.5C 582.67,157.178 582.337,156.011 581.5,155C 579.19,154.503 576.857,154.337 574.5,154.5C 574.5,153.833 574.5,153.167 574.5,152.5C 574.328,151.508 574.662,150.842 575.5,150.5 Z"/></g>
<g><path style="opacity:0.119" fill="#aeaeae" d="M 186.5,128.5 C 183.45,145.726 182.783,163.06 184.5,180.5C 183.167,180.5 182.5,179.833 182.5,178.5C 182.5,166.833 182.5,155.167 182.5,143.5C 182.336,140.813 182.503,138.146 183,135.5C 183.743,132.808 184.91,130.475 186.5,128.5 Z"/></g>
<g><path style="opacity:0.216" fill="#a6a6a6" d="M 383.5,156.5 C 382.676,165.661 379.343,173.661 373.5,180.5C 376.73,173.373 379.397,166.04 381.5,158.5C 382.167,157.833 382.833,157.167 383.5,156.5 Z"/></g>
<g><path style="opacity:0.186" fill="#919191" d="M 711.5,151.5 C 711.5,155.833 711.5,160.167 711.5,164.5C 710.003,162.71 709.336,160.544 709.5,158C 709.336,155.456 710.003,153.29 711.5,151.5 Z"/></g>
<g><path style="opacity:0.082" fill="#818181" d="M 659.5,132.5 C 661.984,142.308 662.15,152.308 660,162.5C 659.434,164.723 658.6,166.723 657.5,168.5C 659.274,157.962 659.94,147.295 659.5,136.5C 659.5,135.167 659.5,133.833 659.5,132.5 Z"/></g>
<g><path style="opacity:1" fill="#d13d12" d="M 323.5,160.5 C 323.5,161.167 323.5,161.833 323.5,162.5C 321.409,163.865 319.076,164.532 316.5,164.5C 316.5,161.833 316.5,159.167 316.5,156.5C 318.833,156.5 321.167,156.5 323.5,156.5C 323.5,157.833 323.5,159.167 323.5,160.5 Z"/></g>
<g><path style="opacity:1" fill="#905d63" d="M 337.5,138.5 C 338.833,146.5 338.833,154.5 337.5,162.5C 336.833,162.5 336.167,162.5 335.5,162.5C 334.5,162.5 333.5,162.5 332.5,162.5C 332.5,161.167 332.5,159.833 332.5,158.5C 333.5,158.5 334.5,158.5 335.5,158.5C 337.459,152.25 338.126,145.584 337.5,138.5 Z"/></g>
<g><path style="opacity:0.399" fill="#7c7c7c" d="M 751.5,160.5 C 753.38,160.229 754.713,160.896 755.5,162.5C 753.517,162.843 752.183,162.176 751.5,160.5 Z"/></g>
<g><path style="opacity:0.129" fill="#b2b2b2" d="M 250.5,158.5 C 252.256,159.552 252.923,161.219 252.5,163.5C 250.787,162.365 250.12,160.698 250.5,158.5 Z"/></g>
<g><path style="opacity:1" fill="#f6bfb3" d="M 332.5,152.5 C 332.821,154.048 333.821,154.715 335.5,154.5C 335.5,155.833 335.5,157.167 335.5,158.5C 334.5,158.5 333.5,158.5 332.5,158.5C 332.5,159.833 332.5,161.167 332.5,162.5C 333.5,162.5 334.5,162.5 335.5,162.5C 335.5,164.833 335.5,167.167 335.5,169.5C 335.167,169.5 334.833,169.5 334.5,169.5C 334.822,166.468 333.489,164.801 330.5,164.5C 328.97,164.64 327.97,165.307 327.5,166.5C 326.508,166.328 325.842,166.662 325.5,167.5C 323.744,166.448 323.077,164.781 323.5,162.5C 323.5,161.833 323.5,161.167 323.5,160.5C 324.5,160.5 325.5,160.5 326.5,160.5C 326.371,158.784 326.038,157.117 325.5,155.5C 325.833,155.5 326.167,155.5 326.5,155.5C 328.168,157.479 328.834,159.812 328.5,162.5C 329.5,162.5 330.5,162.5 331.5,162.5C 331.187,158.958 331.521,155.625 332.5,152.5 Z"/></g>
<g><path style="opacity:1" fill="#52484c" d="M 574.5,133.5 C 574.5,134.167 574.5,134.833 574.5,135.5C 573.196,141.266 573.196,146.933 574.5,152.5C 574.5,153.167 574.5,153.833 574.5,154.5C 574.5,157.833 574.5,161.167 574.5,164.5C 573.171,159.208 572.504,153.542 572.5,147.5C 572.667,141.833 572.833,136.167 573,130.5C 573.232,131.737 573.732,132.737 574.5,133.5 Z"/></g>
<g><path style="opacity:1" fill="#f8e5c9" d="M 296.5,156.5 C 297.5,156.5 298.5,156.5 299.5,156.5C 299.627,159.272 301.127,160.605 304,160.5C 306.761,159.582 309.594,158.916 312.5,158.5C 313.833,161.167 315.167,163.833 316.5,166.5C 317.675,166.281 318.675,166.614 319.5,167.5C 318.051,168.172 316.718,168.839 315.5,169.5C 311.91,169.786 308.743,168.786 306,166.5C 304.624,166.684 303.791,167.351 303.5,168.5C 302.5,168.5 301.5,168.5 300.5,168.5C 299.817,166.824 298.483,166.157 296.5,166.5C 296.5,163.167 296.5,159.833 296.5,156.5 Z"/></g>
<g><path style="opacity:0.804" fill="#6c6c6c" d="M 461.5,140.5 C 461.5,141.833 461.5,143.167 461.5,144.5C 461.333,155.838 461.5,167.172 462,178.5C 463.273,181.597 465.107,184.264 467.5,186.5C 465.5,185.833 463.5,185.167 461.5,184.5C 459.503,171.255 459.003,157.922 460,144.5C 460.21,142.942 460.71,141.609 461.5,140.5 Z"/></g>
<g><path style="opacity:1" fill="#fbccf5" d="M 614.5,158.5 C 614.5,159.833 614.5,161.167 614.5,162.5C 613.833,162.5 613.167,162.5 612.5,162.5C 610.718,161.28 608.718,160.614 606.5,160.5C 606.5,162.5 606.5,164.5 606.5,166.5C 607.833,166.5 609.167,166.5 610.5,166.5C 610.389,167.117 610.056,167.617 609.5,168C 607.19,168.497 604.857,168.663 602.5,168.5C 602.33,167.178 602.663,166.011 603.5,165C 601.12,165.522 598.787,165.355 596.5,164.5C 597.918,162.692 599.918,162.025 602.5,162.5C 602.5,161.167 602.5,159.833 602.5,158.5C 606.5,158.5 610.5,158.5 614.5,158.5 Z"/></g>
<g><path style="opacity:0.444" fill="#7b7b7b" d="M 761.5,164.5 C 759.302,164.88 757.635,164.213 756.5,162.5C 756.435,162.062 756.601,161.728 757,161.5C 758.652,162.399 760.152,163.399 761.5,164.5 Z"/></g>
<g><path style="opacity:1" fill="#b45e9d" d="M 612.5,162.5 C 611.833,163.833 611.167,165.167 610.5,166.5C 609.167,166.5 607.833,166.5 606.5,166.5C 606.5,164.5 606.5,162.5 606.5,160.5C 608.718,160.614 610.718,161.28 612.5,162.5 Z"/></g>
<g><path style="opacity:0.218" fill="#7c7c7c" d="M 761.5,164.5 C 762.833,164.5 763.5,165.167 763.5,166.5C 763.5,165.167 762.833,164.5 761.5,164.5 Z"/></g>
<g><path style="opacity:1" fill="#c66f65" d="M 334.5,169.5 C 332.952,169.179 332.285,168.179 332.5,166.5C 330.833,166.5 329.167,166.5 327.5,166.5C 327.97,165.307 328.97,164.64 330.5,164.5C 333.489,164.801 334.822,166.468 334.5,169.5 Z"/></g>
<g><path style="opacity:1" fill="#b6686f" d="M 574.5,164.5 C 575.833,164.5 577.167,164.5 578.5,164.5C 581.082,164.025 583.082,164.692 584.5,166.5C 581.833,166.5 579.167,166.5 576.5,166.5C 575.833,166.5 575.167,166.5 574.5,166.5C 574.5,165.833 574.5,165.167 574.5,164.5 Z"/></g>
<g><path style="opacity:0.024" fill="#cecece" d="M 417.5,155.5 C 417.5,162.5 417.5,169.5 417.5,176.5C 417.5,177.833 416.833,178.5 415.5,178.5C 416.03,170.679 416.696,163.012 417.5,155.5 Z"/></g>
<g><path style="opacity:1" fill="#cb4332" d="M 576.5,166.5 C 579.167,166.5 581.833,166.5 584.5,166.5C 585.167,166.5 585.833,166.5 586.5,166.5C 586.5,167.167 586.5,167.833 586.5,168.5C 586.5,170.5 586.5,172.5 586.5,174.5C 585.167,174.5 583.833,174.5 582.5,174.5C 580.5,174.5 578.5,174.5 576.5,174.5C 576.5,171.833 576.5,169.167 576.5,166.5 Z"/></g>
<g><path style="opacity:0.129" fill="#909090" d="M 252.5,166.5 C 254.308,167.918 254.975,169.918 254.5,172.5C 253.262,170.786 252.595,168.786 252.5,166.5 Z"/></g>
<g><path style="opacity:1" fill="#f5b571" d="M 323.5,162.5 C 323.077,164.781 323.744,166.448 325.5,167.5C 328.089,170.339 331.089,171.005 334.5,169.5C 334.833,169.5 335.167,169.5 335.5,169.5C 335.5,170.167 335.5,170.833 335.5,171.5C 331.429,172.412 327.429,172.412 323.5,171.5C 323.5,170.5 323.5,169.5 323.5,168.5C 320.873,169.092 318.206,169.425 315.5,169.5C 316.718,168.839 318.051,168.172 319.5,167.5C 318.675,166.614 317.675,166.281 316.5,166.5C 316.5,165.833 316.5,165.167 316.5,164.5C 319.076,164.532 321.409,163.865 323.5,162.5 Z"/></g>
<g><path style="opacity:1" fill="#bb4a26" d="M 327.5,166.5 C 329.167,166.5 330.833,166.5 332.5,166.5C 332.285,168.179 332.952,169.179 334.5,169.5C 331.089,171.005 328.089,170.339 325.5,167.5C 325.842,166.662 326.508,166.328 327.5,166.5 Z"/></g>
<g><path style="opacity:1" fill="#e3b2c1" d="M 612.5,162.5 C 613.167,162.5 613.833,162.5 614.5,162.5C 614.5,163.167 614.5,163.833 614.5,164.5C 614.5,165.833 614.5,167.167 614.5,168.5C 611.833,169.833 609.167,171.167 606.5,172.5C 605.167,171.167 603.833,169.833 602.5,168.5C 604.857,168.663 607.19,168.497 609.5,168C 610.056,167.617 610.389,167.117 610.5,166.5C 611.167,165.167 611.833,163.833 612.5,162.5 Z"/></g>
<g><path style="opacity:0.149" fill="#8c8c8c" d="M 530.5,166.5 C 532.176,167.183 532.843,168.517 532.5,170.5C 530.896,169.713 530.229,168.38 530.5,166.5 Z"/></g>
<g><path style="opacity:1" fill="#672c2b" d="M 574.5,166.5 C 575.167,166.5 575.833,166.5 576.5,166.5C 576.5,169.167 576.5,171.833 576.5,174.5C 574.631,172.365 573.964,169.698 574.5,166.5 Z"/></g>
<g><path style="opacity:0.753" fill="#5d5d5d" d="M 713.5,168.5 C 716.142,168.488 717.475,169.821 717.5,172.5C 715.833,171.5 714.5,170.167 713.5,168.5 Z"/></g>
<g><path style="opacity:1" fill="#a48677" d="M 335.5,162.5 C 336.167,162.5 336.833,162.5 337.5,162.5C 337.384,165.86 337.051,169.193 336.5,172.5C 336.167,172.5 335.833,172.5 335.5,172.5C 335.5,172.167 335.5,171.833 335.5,171.5C 335.5,170.833 335.5,170.167 335.5,169.5C 335.5,167.167 335.5,164.833 335.5,162.5 Z"/></g>
<g><path style="opacity:1" fill="#fbdbdb" d="M 594.5,164.5 C 595.167,164.5 595.833,164.5 596.5,164.5C 598.787,165.355 601.12,165.522 603.5,165C 602.663,166.011 602.33,167.178 602.5,168.5C 603.833,169.833 605.167,171.167 606.5,172.5C 604.988,174.934 602.988,175.601 600.5,174.5C 599.21,171.876 597.21,169.876 594.5,168.5C 593.287,168.747 592.62,169.414 592.5,170.5C 591.596,171.209 591.263,172.209 591.5,173.5C 590.5,173.5 589.5,173.5 588.5,173.5C 588.923,171.219 588.256,169.552 586.5,168.5C 586.5,167.833 586.5,167.167 586.5,166.5C 586.238,165.022 586.571,163.689 587.5,162.5C 589.595,164.877 591.929,165.543 594.5,164.5 Z"/></g>
<g><path style="opacity:1" fill="#bd5e7c" d="M 296.5,166.5 C 298.483,166.157 299.817,166.824 300.5,168.5C 302.69,169.374 303.69,171.041 303.5,173.5C 301.486,173.392 299.82,174.058 298.5,175.5C 296.956,172.752 296.29,169.752 296.5,166.5 Z"/></g>
<g><path style="opacity:1" fill="#eda744" d="M 315.5,169.5 C 318.206,169.425 320.873,169.092 323.5,168.5C 323.5,169.5 323.5,170.5 323.5,171.5C 323.297,173.044 322.63,174.378 321.5,175.5C 322.872,179.026 324.539,182.359 326.5,185.5C 325.833,185.167 325.167,184.833 324.5,184.5C 323.833,183.833 323.167,183.167 322.5,182.5C 320.132,180.035 319.132,177.035 319.5,173.5C 316.615,173.194 313.948,173.527 311.5,174.5C 309.5,174.5 307.5,174.5 305.5,174.5C 305.747,172.142 305.081,170.142 303.5,168.5C 303.791,167.351 304.624,166.684 306,166.5C 308.743,168.786 311.91,169.786 315.5,169.5 Z"/></g>
<g><path style="opacity:1" fill="#b7685a" d="M 600.5,174.5 C 596.741,175.042 594.074,173.708 592.5,170.5C 592.62,169.414 593.287,168.747 594.5,168.5C 597.21,169.876 599.21,171.876 600.5,174.5 Z"/></g>
<g><path style="opacity:1" fill="#ed9758" d="M 300.5,168.5 C 301.5,168.5 302.5,168.5 303.5,168.5C 305.081,170.142 305.747,172.142 305.5,174.5C 307.5,174.5 309.5,174.5 311.5,174.5C 311.047,175.458 310.381,176.292 309.5,177C 306.146,177.455 302.813,177.955 299.5,178.5C 298.596,177.791 298.263,176.791 298.5,175.5C 299.82,174.058 301.486,173.392 303.5,173.5C 303.69,171.041 302.69,169.374 300.5,168.5 Z"/></g>
<g><path style="opacity:0.816" fill="#6b6b6b" d="M 532.5,172.5 C 535.313,173.446 536.646,175.446 536.5,178.5C 534.684,176.882 533.351,174.882 532.5,172.5 Z"/></g>
<g><path style="opacity:0.249" fill="#aeaeae" d="M 685.5,176.5 C 682.167,176.5 678.833,176.5 675.5,176.5C 676.946,175.06 678.779,174.393 681,174.5C 683.008,174.307 684.508,174.974 685.5,176.5 Z"/></g>
<g><path style="opacity:1" fill="#bc7041" d="M 614.5,168.5 C 614.5,171.167 614.5,173.833 614.5,176.5C 613.167,177.833 611.833,179.167 610.5,180.5C 610.475,177.821 609.142,176.488 606.5,176.5C 606.5,175.167 606.5,173.833 606.5,172.5C 609.167,171.167 611.833,169.833 614.5,168.5 Z"/></g>
<g><path style="opacity:1" fill="#f28774" d="M 322.5,182.5 C 321.5,182.5 320.5,182.5 319.5,182.5C 319.5,182.167 319.5,181.833 319.5,181.5C 318.498,179.989 317.831,178.322 317.5,176.5C 312.795,177.503 308.128,178.503 303.5,179.5C 302.292,180.234 300.959,180.567 299.5,180.5C 299.5,179.833 299.5,179.167 299.5,178.5C 302.813,177.955 306.146,177.455 309.5,177C 310.381,176.292 311.047,175.458 311.5,174.5C 313.948,173.527 316.615,173.194 319.5,173.5C 319.132,177.035 320.132,180.035 322.5,182.5 Z"/></g>
<g><path style="opacity:0.998" fill="#070707" d="M 674.5,176.5 C 674.833,176.5 675.167,176.5 675.5,176.5C 678.833,176.5 682.167,176.5 685.5,176.5C 689.181,179.553 691.181,183.553 691.5,188.5C 691.043,191.915 690.377,195.248 689.5,198.5C 684.641,199.988 679.641,200.655 674.5,200.5C 673.167,197.833 671.167,195.833 668.5,194.5C 668.5,190.5 668.5,186.5 668.5,182.5C 671.167,181.167 673.167,179.167 674.5,176.5 Z"/></g>
<g><path style="opacity:1" fill="#c9e036" d="M 334.5,178.5 C 333.263,179.965 332.263,181.632 331.5,183.5C 329.983,183.489 328.816,182.823 328,181.5C 327.206,179.14 326.206,177.14 325,175.5C 327.899,175.023 330.566,174.023 333,172.5C 334.128,174.345 334.628,176.345 334.5,178.5 Z"/></g>
<g><path style="opacity:1" fill="#cf9c83" d="M 576.5,174.5 C 578.5,174.5 580.5,174.5 582.5,174.5C 581.612,177.054 581.279,179.721 581.5,182.5C 580.662,182.842 580.328,183.508 580.5,184.5C 577.637,181.939 576.304,178.606 576.5,174.5 Z"/></g>
<g><path style="opacity:0.404" fill="#999999" d="M 674.5,176.5 C 673.167,179.167 671.167,181.167 668.5,182.5C 669.478,179.522 671.478,177.522 674.5,176.5 Z"/></g>
<g><path style="opacity:0.333" fill="#7d7d7d" d="M 725.5,176.5 C 728.082,176.025 730.082,176.692 731.5,178.5C 729.102,178.741 727.102,178.074 725.5,176.5 Z"/></g>
<g><path style="opacity:0.755" fill="#707171" d="M 254.5,172.5 C 257.466,175.688 260.466,179.021 263.5,182.5C 264.429,183.689 264.762,185.022 264.5,186.5C 259.697,182.899 256.364,178.232 254.5,172.5 Z"/></g>
<g><path style="opacity:1" fill="#f3c569" d="M 582.5,174.5 C 583.833,174.5 585.167,174.5 586.5,174.5C 590.837,175.862 594.837,177.862 598.5,180.5C 599.1,181.9 600.1,182.9 601.5,183.5C 599.167,183.5 596.833,183.5 594.5,183.5C 594.67,182.178 594.337,181.011 593.5,180C 590.442,178.985 587.442,177.819 584.5,176.5C 583.534,178.396 583.201,180.396 583.5,182.5C 582.833,182.5 582.167,182.5 581.5,182.5C 581.279,179.721 581.612,177.054 582.5,174.5 Z"/></g>
<g><path style="opacity:1" fill="#f8d3ae" d="M 586.5,168.5 C 588.256,169.552 588.923,171.219 588.5,173.5C 589.5,173.5 590.5,173.5 591.5,173.5C 591.263,172.209 591.596,171.209 592.5,170.5C 594.074,173.708 596.741,175.042 600.5,174.5C 602.988,175.601 604.988,174.934 606.5,172.5C 606.5,173.833 606.5,175.167 606.5,176.5C 602.741,175.958 600.074,177.292 598.5,180.5C 594.837,177.862 590.837,175.862 586.5,174.5C 586.5,172.5 586.5,170.5 586.5,168.5 Z"/></g>
<g><path style="opacity:0.351" fill="#808080" d="M 653.5,176.5 C 652.66,178.853 651.326,180.853 649.5,182.5C 649.87,179.733 651.204,177.733 653.5,176.5 Z"/></g>
<g><path style="opacity:0.2" fill="#aeaeae" d="M 731.5,178.5 C 734.082,178.025 736.082,178.692 737.5,180.5C 735.302,180.125 733.302,179.458 731.5,178.5 Z"/></g>
<g><path style="opacity:1" fill="#eb4b87" d="M 319.5,181.5 C 317.289,180.963 315.289,179.963 313.5,178.5C 310.358,180.119 307.025,180.785 303.5,180.5C 303.5,180.167 303.5,179.833 303.5,179.5C 308.128,178.503 312.795,177.503 317.5,176.5C 317.831,178.322 318.498,179.989 319.5,181.5 Z"/></g>
<g><path style="opacity:1" fill="#e7d353" d="M 323.5,171.5 C 327.429,172.412 331.429,172.412 335.5,171.5C 335.5,171.833 335.5,172.167 335.5,172.5C 335.795,174.735 335.461,176.735 334.5,178.5C 334.628,176.345 334.128,174.345 333,172.5C 330.566,174.023 327.899,175.023 325,175.5C 326.206,177.14 327.206,179.14 328,181.5C 328.816,182.823 329.983,183.489 331.5,183.5C 330.89,184.391 330.557,185.391 330.5,186.5C 330.167,186.5 329.833,186.5 329.5,186.5C 328.209,186.737 327.209,186.404 326.5,185.5C 324.539,182.359 322.872,179.026 321.5,175.5C 322.63,174.378 323.297,173.044 323.5,171.5 Z"/></g>
<g><path style="opacity:0.525" fill="#787878" d="M 536.5,178.5 C 538.796,179.733 540.13,181.733 540.5,184.5C 538.178,183.198 536.845,181.198 536.5,178.5 Z"/></g>
<g><path style="opacity:0.051" fill="#a1a1a1" d="M 769.5,174.5 C 772.079,178.53 772.079,182.53 769.5,186.5C 769.5,182.5 769.5,178.5 769.5,174.5 Z"/></g>
<g><path style="opacity:0.306" fill="#8e8e8e" d="M 33.5,178.5 C 33.3404,180.153 32.6737,181.486 31.5,182.5C 31.2291,180.62 31.8958,179.287 33.5,178.5 Z"/></g>
<g><path style="opacity:1" fill="#3f2626" d="M 294.5,143.5 C 295.167,143.833 295.833,144.167 296.5,144.5C 296.5,145.167 296.5,145.833 296.5,146.5C 296.5,149.833 296.5,153.167 296.5,156.5C 296.5,159.833 296.5,163.167 296.5,166.5C 296.29,169.752 296.956,172.752 298.5,175.5C 298.263,176.791 298.596,177.791 299.5,178.5C 299.5,179.167 299.5,179.833 299.5,180.5C 299.167,180.5 298.833,180.5 298.5,180.5C 297.069,180.881 296.236,181.881 296,183.5C 295.697,179.471 295.197,175.471 294.5,171.5C 294.875,162.207 294.875,152.874 294.5,143.5 Z"/></g>
<g><path style="opacity:0.233" fill="#8f8f8f" d="M 741.5,180.5 C 744.082,180.025 746.082,180.692 747.5,182.5C 745.214,182.405 743.214,181.738 741.5,180.5 Z"/></g>
<g><path style="opacity:0.463" fill="#9f9f9f" d="M 184.5,180.5 C 185.674,181.514 186.34,182.847 186.5,184.5C 184.824,183.817 184.157,182.483 184.5,180.5 Z"/></g>
<g><path style="opacity:1" fill="#414717" d="M 335.5,172.5 C 335.833,172.5 336.167,172.5 336.5,172.5C 336.5,175.833 336.5,179.167 336.5,182.5C 334.115,183.292 332.115,184.626 330.5,186.5C 330.557,185.391 330.89,184.391 331.5,183.5C 332.263,181.632 333.263,179.965 334.5,178.5C 335.461,176.735 335.795,174.735 335.5,172.5 Z"/></g>
<g><path style="opacity:1" fill="#d28634" d="M 606.5,176.5 C 609.142,176.488 610.475,177.821 610.5,180.5C 609.167,183.167 607.833,185.833 606.5,188.5C 605.833,188.5 605.167,188.5 604.5,188.5C 604.759,186.011 603.759,184.344 601.5,183.5C 600.1,182.9 599.1,181.9 598.5,180.5C 600.074,177.292 602.741,175.958 606.5,176.5 Z"/></g>
<g><path style="opacity:0.576" fill="#6f6f73" d="M 649.5,182.5 C 647.712,186.104 645.045,188.77 641.5,190.5C 642.635,187.837 644.302,185.504 646.5,183.5C 647.325,182.614 648.325,182.281 649.5,182.5 Z"/></g>
<g><path style="opacity:0.643" fill="#6f6f6f" d="M 719.5,182.5 C 721.856,185.186 724.189,187.853 726.5,190.5C 722.391,189.391 720.058,186.725 719.5,182.5 Z"/></g>
<g><path style="opacity:0.988" fill="#575757" d="M 31.5,182.5 C 31.4606,183.583 31.1272,184.583 30.5,185.5C 27.5719,186.484 24.5719,186.817 21.5,186.5C 24.6777,184.991 28.0111,183.658 31.5,182.5 Z"/></g>
<g><path style="opacity:1" fill="#761d52" d="M 303.5,179.5 C 303.5,179.833 303.5,180.167 303.5,180.5C 303.5,182.5 303.5,184.5 303.5,186.5C 302.167,186.5 300.833,186.5 299.5,186.5C 299.5,184.5 299.5,182.5 299.5,180.5C 300.959,180.567 302.292,180.234 303.5,179.5 Z"/></g>
<g><path style="opacity:1" fill="#cf228b" d="M 319.5,181.5 C 319.5,181.833 319.5,182.167 319.5,182.5C 319.5,182.833 319.5,183.167 319.5,183.5C 317.425,183.302 315.425,183.135 313.5,183C 312.918,185.974 311.585,188.474 309.5,190.5C 307.5,190.5 305.5,190.5 303.5,190.5C 303.5,189.167 303.5,187.833 303.5,186.5C 303.5,184.5 303.5,182.5 303.5,180.5C 307.025,180.785 310.358,180.119 313.5,178.5C 315.289,179.963 317.289,180.963 319.5,181.5 Z"/></g>
<g><path style="opacity:1" fill="#cb4979" d="M 319.5,183.5 C 319.5,183.167 319.5,182.833 319.5,182.5C 320.5,182.5 321.5,182.5 322.5,182.5C 323.167,183.167 323.833,183.833 324.5,184.5C 324.433,185.959 324.766,187.292 325.5,188.5C 325.5,189.833 324.833,190.5 323.5,190.5C 323.955,187.069 322.621,184.736 319.5,183.5 Z"/></g>
<g><path style="opacity:0.227" fill="#a3a3a3" d="M 373.5,180.5 C 370.5,185.5 366.5,189.5 361.5,192.5C 364.833,187.833 368.833,183.833 373.5,180.5 Z"/></g>
<g><path style="opacity:1" fill="#f0e3ae" d="M 581.5,182.5 C 582.167,182.5 582.833,182.5 583.5,182.5C 588.983,182.32 591.317,184.987 590.5,190.5C 589.833,190.5 589.167,190.5 588.5,190.5C 584.691,190.025 582.025,188.025 580.5,184.5C 580.328,183.508 580.662,182.842 581.5,182.5 Z"/></g>
<g><path style="opacity:1" fill="#edb837" d="M 601.5,183.5 C 603.759,184.344 604.759,186.011 604.5,188.5C 603.167,189.167 601.833,189.833 600.5,190.5C 597.167,190.5 593.833,190.5 590.5,190.5C 591.317,184.987 588.983,182.32 583.5,182.5C 583.201,180.396 583.534,178.396 584.5,176.5C 587.442,177.819 590.442,178.985 593.5,180C 594.337,181.011 594.67,182.178 594.5,183.5C 596.833,183.5 599.167,183.5 601.5,183.5 Z"/></g>
<g><path style="opacity:0.536" fill="#747474" d="M 87.5,182.5 C 93.4284,185.398 99.7618,186.898 106.5,187C 107.167,188 107.833,189 108.5,190C 107.744,192.978 107.411,195.811 107.5,198.5C 106.521,195.375 106.187,192.042 106.5,188.5C 100.621,188.734 94.9542,187.734 89.5,185.5C 88.3881,184.735 87.7214,183.735 87.5,182.5 Z"/></g>
<g><path style="opacity:0.067" fill="#909090" d="M 190.5,186.5 C 194.764,186.344 198.764,187.011 202.5,188.5C 201.833,188.5 201.167,188.5 200.5,188.5C 196.671,189.069 193.337,188.402 190.5,186.5 Z"/></g>
<g><path style="opacity:1" fill="#b97a6d" d="M 324.5,184.5 C 325.167,184.833 325.833,185.167 326.5,185.5C 327.209,186.404 328.209,186.737 329.5,186.5C 329.672,187.492 329.338,188.158 328.5,188.5C 327.833,188.5 327.167,188.5 326.5,188.5C 326.167,188.5 325.833,188.5 325.5,188.5C 324.766,187.292 324.433,185.959 324.5,184.5 Z"/></g>
<g><path style="opacity:0.799" fill="#565656" d="M 749.5,182.5 C 752.491,182.33 754.491,183.663 755.5,186.5C 755.253,187.713 754.586,188.38 753.5,188.5C 752.585,186.246 751.252,184.246 749.5,182.5 Z"/></g>
<g><path style="opacity:1" fill="#e536b8" d="M 319.5,183.5 C 322.621,184.736 323.955,187.069 323.5,190.5C 318.833,190.5 314.167,190.5 309.5,190.5C 311.585,188.474 312.918,185.974 313.5,183C 315.425,183.135 317.425,183.302 319.5,183.5 Z"/></g>
<g><path style="opacity:1" fill="#431408" d="M 614.5,176.5 C 616.14,183.874 613.474,188.54 606.5,190.5C 606.5,189.833 606.5,189.167 606.5,188.5C 607.833,185.833 609.167,183.167 610.5,180.5C 611.833,179.167 613.167,177.833 614.5,176.5 Z"/></g>
<g><path style="opacity:0.514" fill="#929292" d="M 668.5,182.5 C 668.5,186.5 668.5,190.5 668.5,194.5C 665.959,190.521 665.959,186.521 668.5,182.5 Z"/></g>
<g><path style="opacity:0.471" fill="#747474" d="M 685.5,176.5 C 687.903,176.393 689.736,177.393 691,179.5C 695.952,186.402 695.452,192.735 689.5,198.5C 690.377,195.248 691.043,191.915 691.5,188.5C 691.181,183.553 689.181,179.553 685.5,176.5 Z"/></g>
<g><path style="opacity:0.808" fill="#555555" d="M 769.5,186.5 C 769.316,189.337 767.982,191.337 765.5,192.5C 765.354,189.446 766.687,187.446 769.5,186.5 Z"/></g>
<g><path style="opacity:0.561" fill="#646565" d="M 264.5,186.5 C 265.978,186.238 267.311,186.571 268.5,187.5C 270.69,189.724 272.69,192.058 274.5,194.5C 270.251,192.912 266.918,190.245 264.5,186.5 Z"/></g>
<g><path style="opacity:0.827" fill="#5a5a5a" d="M 753.5,188.5 C 752.969,191.779 750.969,193.113 747.5,192.5C 749.463,191.18 751.463,189.846 753.5,188.5 Z"/></g>
<g><path style="opacity:1" fill="#795d2a" d="M 588.5,190.5 C 589.167,190.5 589.833,190.5 590.5,190.5C 593.833,190.5 597.167,190.5 600.5,190.5C 598.952,191.794 596.952,192.461 594.5,192.5C 592.048,192.461 590.048,191.794 588.5,190.5 Z"/></g>
<g><path style="opacity:0.192" fill="#898989" d="M 719.5,182.5 C 717.5,182.5 715.5,182.5 713.5,182.5C 713.5,188.5 713.5,194.5 713.5,200.5C 715.5,200.5 717.5,200.5 719.5,200.5C 717.622,202.509 715.456,202.842 713,201.5C 711.247,194.918 711.08,188.251 712.5,181.5C 715.157,180.087 717.49,180.42 719.5,182.5 Z"/></g>
<g><path style="opacity:0.107" fill="#949494" d="M 733.5,192.5 C 738.167,192.5 742.833,192.5 747.5,192.5C 745.603,193.805 743.269,194.471 740.5,194.5C 737.731,194.471 735.397,193.805 733.5,192.5 Z"/></g>
<g><path style="opacity:0.205" fill="#989898" d="M 765.5,192.5 C 765.5,193.833 764.833,194.5 763.5,194.5C 763.5,193.167 764.167,192.5 765.5,192.5 Z"/></g>
<g><path style="opacity:1" fill="#350a26" d="M 298.5,180.5 C 298.833,180.5 299.167,180.5 299.5,180.5C 299.5,182.5 299.5,184.5 299.5,186.5C 300.833,186.5 302.167,186.5 303.5,186.5C 303.5,187.833 303.5,189.167 303.5,190.5C 305.5,190.5 307.5,190.5 309.5,190.5C 311.397,191.805 313.731,192.471 316.5,192.5C 319.867,192.355 323.201,192.022 326.5,191.5C 326.5,190.5 326.5,189.5 326.5,188.5C 327.167,188.5 327.833,188.5 328.5,188.5C 327.874,191.315 326.54,193.815 324.5,196C 323,196.167 321.5,196.333 320,196.5C 312.717,195.84 305.883,194.173 299.5,191.5C 298.886,187.865 298.552,184.198 298.5,180.5 Z"/></g>
<g><path style="opacity:1" fill="#7a2562" d="M 325.5,188.5 C 325.833,188.5 326.167,188.5 326.5,188.5C 326.5,189.5 326.5,190.5 326.5,191.5C 323.201,192.022 319.867,192.355 316.5,192.5C 313.731,192.471 311.397,191.805 309.5,190.5C 314.167,190.5 318.833,190.5 323.5,190.5C 324.833,190.5 325.5,189.833 325.5,188.5 Z"/></g>
<g><path style="opacity:0.12" fill="#a5a3a6" d="M 361.5,192.5 C 360.198,194.822 358.198,196.155 355.5,196.5C 356.446,193.687 358.446,192.354 361.5,192.5 Z"/></g>
<g><path style="opacity:0.125" fill="#a6a6a6" d="M 763.5,194.5 C 763.5,195.833 762.833,196.5 761.5,196.5C 761.5,195.167 762.167,194.5 763.5,194.5 Z"/></g>
<g><path style="opacity:0.675" fill="#676767" d="M 200.5,188.5 C 201.167,188.5 201.833,188.5 202.5,188.5C 203.833,192.5 203.833,196.5 202.5,200.5C 201.833,200.5 201.167,200.5 200.5,200.5C 200.5,196.5 200.5,192.5 200.5,188.5 Z"/></g>
<g><path style="opacity:1" fill="#221516" d="M 616.5,143.5 C 618.288,143.215 619.955,143.548 621.5,144.5C 621.167,145.167 620.833,145.833 620.5,146.5C 623.473,149.75 624.139,153.417 622.5,157.5C 623.041,160.208 623.708,162.874 624.5,165.5C 624.167,166.5 623.5,167.167 622.5,167.5C 621.984,171.05 620.984,174.383 619.5,177.5C 620.462,179.883 619.462,180.883 616.5,180.5C 615.932,183.758 615.766,187.091 616,190.5C 614.57,190.306 613.07,190.306 611.5,190.5C 610.787,192.776 610.287,195.109 610,197.5C 608.817,198.731 607.651,198.731 606.5,197.5C 607.507,194.73 607.507,192.396 606.5,190.5C 613.474,188.54 616.14,183.874 614.5,176.5C 614.5,173.833 614.5,171.167 614.5,168.5C 614.5,167.167 614.5,165.833 614.5,164.5C 615.117,164.389 615.617,164.056 616,163.5C 616.499,158.177 616.666,152.844 616.5,147.5C 616.5,146.167 616.5,144.833 616.5,143.5 Z"/></g>
<g><path style="opacity:0.29" fill="#909090" d="M 668.5,194.5 C 671.167,195.833 673.167,197.833 674.5,200.5C 671.5,199.5 669.5,197.5 668.5,194.5 Z"/></g>
<g><path style="opacity:0.239" fill="#858585" d="M 274.5,194.5 C 277.554,194.354 279.554,195.687 280.5,198.5C 278.147,197.66 276.147,196.326 274.5,194.5 Z"/></g>
<g><path style="opacity:0.251" fill="#9b999b" d="M 355.5,196.5 C 354.713,198.104 353.38,198.771 351.5,198.5C 352.183,196.824 353.517,196.157 355.5,196.5 Z"/></g>
<g><path style="opacity:0.655" fill="#737373" d="M 281.5,198.5 C 285.165,199.219 288.832,200.052 292.5,201C 294.544,201.498 295.878,202.665 296.5,204.5C 290.923,203.648 285.923,201.648 281.5,198.5 Z"/></g>
<g><path style="opacity:0.208" fill="#a1a1a3" d="M 351.5,198.5 C 350.713,200.104 349.38,200.771 347.5,200.5C 348.183,198.824 349.517,198.157 351.5,198.5 Z"/></g>
<g><path style="opacity:0.027" fill="#a7a7a7" d="M 721.5,198.5 C 721.5,199.833 720.833,200.5 719.5,200.5C 719.5,199.167 720.167,198.5 721.5,198.5 Z"/></g>
<g><path style="opacity:0.642" fill="#646464" d="M 21.5,186.5 C 19.0122,188.388 16.0122,189.055 12.5,188.5C 12.5,192.5 12.5,196.5 12.5,200.5C 43.8333,200.5 75.1667,200.5 106.5,200.5C 75.0044,201.498 43.3377,201.832 11.5,201.5C 11.5,196.5 11.5,191.5 11.5,186.5C 14.8333,186.5 18.1667,186.5 21.5,186.5 Z"/></g>
<g><path style="opacity:0.62" fill="#6f7171" d="M 564.5,200.5 C 566.898,200.259 568.898,200.926 570.5,202.5C 568.102,202.741 566.102,202.074 564.5,200.5 Z"/></g>
<g><path style="opacity:0.299" fill="#999999" d="M 733.5,200.5 C 738.833,200.5 744.167,200.5 749.5,200.5C 744.167,203.167 738.833,203.167 733.5,200.5 Z"/></g>
<g><path style="opacity:0.1" fill="#898989" d="M 106.5,200.5 C 106.833,200.5 107.167,200.5 107.5,200.5C 91.8476,201.833 75.8476,202.499 59.5,202.5C 43.3298,202.5 27.3298,202.167 11.5,201.5C 43.3377,201.832 75.0044,201.498 106.5,200.5 Z"/></g>
<g><path style="opacity:0.155" fill="#7f7f7f" d="M 130.5,186.5 C 128.721,188.344 126.388,189.01 123.5,188.5C 123.5,192.5 123.5,196.5 123.5,200.5C 149.167,200.5 174.833,200.5 200.5,200.5C 201.167,200.5 201.833,200.5 202.5,200.5C 189.35,201.833 175.85,202.499 162,202.5C 148.5,202.167 135,201.833 121.5,201.5C 120.394,197.223 120.228,192.89 121,188.5C 123.904,186.773 127.07,186.107 130.5,186.5 Z"/></g>
<g><path style="opacity:0.188" fill="#7a7a7a" d="M 409.5,186.5 C 407.365,188.369 404.698,189.036 401.5,188.5C 401.5,192.5 401.5,196.5 401.5,200.5C 427.167,200.5 452.833,200.5 478.5,200.5C 478.5,196.5 478.5,192.5 478.5,188.5C 474.988,189.055 471.988,188.388 469.5,186.5C 473.584,186.043 477.417,186.71 481,188.5C 481.772,192.89 481.606,197.223 480.5,201.5C 453.508,202.5 426.508,202.833 399.5,202.5C 398.708,197.768 398.541,193.101 399,188.5C 399.5,188 400,187.5 400.5,187C 403.482,186.502 406.482,186.335 409.5,186.5 Z"/></g>
<g><path style="opacity:0.129" fill="#929292" d="M 689.5,198.5 C 684.935,202.762 679.935,203.429 674.5,200.5C 679.641,200.655 684.641,199.988 689.5,198.5 Z"/></g>
<g><path style="opacity:0.125" fill="#9b9b9b" d="M 347.5,200.5 C 340.087,204.353 332.087,206.353 323.5,206.5C 324.833,205.833 326.167,205.167 327.5,204.5C 334.243,203.144 340.91,201.81 347.5,200.5 Z"/></g>
<g><path style="opacity:0.922" fill="#777877" d="M 297.5,204.5 C 307.5,204.5 317.5,204.5 327.5,204.5C 326.167,205.167 324.833,205.833 323.5,206.5C 314.595,207.568 305.929,206.901 297.5,204.5 Z"/></g>
<g><path style="opacity:0.414" fill="#727273" d="M 624.5,200.5 C 615.126,204.908 605.126,206.908 594.5,206.5C 590.5,206.333 586.5,206.167 582.5,206C 578.207,205.356 574.207,204.19 570.5,202.5C 573.978,202.184 577.312,202.684 580.5,204C 589.833,204.667 599.167,204.667 608.5,204C 613.807,202.5 619.141,201.334 624.5,200.5 Z"/></g>
</svg>
